<svg width="451" height="57" viewBox="0 0 451 57" fill="none" xmlns="http://www.w3.org/2000/svg">
<mask id="mask0_1_21" style="mask-type:luminance" maskUnits="userSpaceOnUse" x="0" y="16" width="120" height="41">
<path d="M119.873 16.5396L0.208725 16.4623L0.182889 56.4623L119.847 56.5396L119.873 16.5396Z" fill="white"/>
</mask>
<g mask="url(#mask0_1_21)">
<path d="M110.344 16.5333L9.7434 16.4683C9.3767 16.4681 9.0144 16.4679 8.64867 16.4696C8.34252 16.4714 8.03881 16.477 7.72971 16.4817C7.05822 16.4892 6.38828 16.5478 5.7257 16.6571C5.06405 16.7688 4.42306 16.9798 3.82442 17.2829C3.2265 17.5886 2.68009 17.9859 2.205 18.4605C1.72743 18.9338 1.32924 19.4809 1.02574 20.0809C0.721401 20.6796 0.510227 21.3213 0.399509 21.9838C0.287742 22.6454 0.227397 23.3147 0.219015 23.9857C0.209537 24.2923 0.208359 24.5999 0.203271 24.9065L0.188341 48.0208C0.193031 48.3313 0.193816 48.6321 0.202896 48.9427C0.210413 49.6136 0.269894 50.2829 0.380803 50.9447C0.490361 51.6077 0.700718 52.25 1.00457 52.8494C1.30717 53.4478 1.7047 53.9933 2.18175 54.4645C2.65441 54.9418 3.20066 55.3401 3.79964 55.6442C4.39789 55.9489 5.03853 56.1619 5.70011 56.2762C6.36266 56.3855 7.03246 56.445 7.7039 56.4543C8.01298 56.4613 8.31669 56.4654 8.62284 56.4656C8.98856 56.4679 9.35089 56.4681 9.71757 56.4683L110.318 56.5333C110.677 56.5335 111.042 56.5338 111.402 56.532C111.706 56.5322 112.019 56.5285 112.324 56.5219C112.994 56.5139 113.662 56.4553 114.324 56.3464C114.987 56.2321 115.631 56.0199 116.232 55.7168C116.831 55.4133 117.377 55.0157 117.85 54.5392C118.326 54.0667 118.726 53.5221 119.033 52.9256C119.336 52.3262 119.544 51.6842 119.653 51.0217C119.765 50.36 119.827 49.691 119.84 49.02C119.844 48.7094 119.844 48.4086 119.844 48.0981C119.853 47.7348 119.853 47.3735 119.853 47.0043L119.867 26.0756C119.867 25.7094 119.867 25.3461 119.859 24.9838C119.859 24.6772 119.86 24.3695 119.856 24.0629C119.844 23.3919 119.783 22.7226 119.672 22.0608C119.564 21.3985 119.355 20.7566 119.054 20.1571C118.437 18.9537 117.46 17.9739 116.257 17.3554C115.656 17.0523 115.013 16.8406 114.35 16.7272C113.689 16.6166 113.02 16.557 112.35 16.5492C112.045 16.5441 111.732 16.538 111.428 16.5359C111.068 16.5336 110.703 16.5335 110.344 16.5333Z" fill="#A6A6A6"/>
<path d="M8.62832 55.5927C8.32364 55.5925 8.02633 55.5884 7.72404 55.5814C7.09783 55.5728 6.4731 55.5179 5.85501 55.4171C5.27866 55.3174 4.72039 55.1325 4.19862 54.8682C3.68163 54.606 3.21016 54.2625 2.80228 53.8506C2.38848 53.4437 2.04405 52.9717 1.78267 52.4535C1.5184 51.9319 1.33563 51.3729 1.24074 50.7959C1.13826 50.176 1.08301 49.5491 1.07545 48.9208C1.06924 48.7099 1.0614 48.0077 1.0614 48.0077L1.07632 24.9072C1.07632 24.9072 1.0856 24.2158 1.09159 24.0126C1.09962 23.3853 1.15536 22.7595 1.25833 22.1407C1.35414 21.5623 1.53776 21.0019 1.80286 20.4789C2.06396 19.9614 2.40707 19.4895 2.8189 19.0816C3.23027 18.6698 3.70369 18.3251 4.2219 18.0601C4.74281 17.7973 5.30026 17.6143 5.87558 17.5172C6.49583 17.4162 7.1228 17.3617 7.75119 17.3543L8.65352 17.3427L111.422 17.4091L112.335 17.4224C112.958 17.4302 113.579 17.4849 114.193 17.5862C114.774 17.6852 115.338 17.8702 115.864 18.1351C116.901 18.6706 117.746 19.5173 118.277 20.5566C118.538 21.0763 118.717 21.6323 118.812 22.2059C118.915 22.8299 118.972 23.4607 118.984 24.0932C118.987 24.3764 118.986 24.6806 118.986 24.9833C118.994 25.3583 118.994 25.7153 118.994 26.0751L118.98 47.0038C118.98 47.3671 118.98 47.7216 118.971 48.079C118.971 48.4042 118.971 48.7021 118.967 49.0087C118.955 49.6299 118.898 50.2493 118.795 50.8621C118.701 51.4431 118.519 52.0062 118.253 52.5317C117.99 53.0439 117.647 53.5114 117.238 53.9168C116.828 54.3303 116.356 54.6752 115.837 54.9384C115.312 55.204 114.75 55.389 114.169 55.4871C113.55 55.5877 112.925 55.6418 112.299 55.649C112.006 55.6556 111.7 55.6593 111.402 55.6591L110.318 55.6604L8.62832 55.5927Z" fill="black"/>
<path d="M24.9646 36.7789C24.9758 35.9442 25.1981 35.1259 25.6106 34.4003C26.0231 33.6746 26.6125 33.065 27.3239 32.6283C26.8725 31.9829 26.2769 31.4515 25.5843 31.0766C24.8917 30.7015 24.1213 30.4932 23.3341 30.468C21.655 30.2907 20.0262 31.4708 19.1705 31.4702C18.2982 31.4697 16.9814 30.4814 15.5626 30.5097C14.6449 30.5388 13.7505 30.805 12.9662 31.2826C12.182 31.7601 11.5349 32.4327 11.088 33.2347C9.15179 36.5819 10.5912 41.5039 12.4421 44.2117C13.3681 45.5376 14.4505 47.0188 15.8679 46.9672C17.2551 46.9105 17.7736 46.0839 19.4479 46.085C21.1067 46.0861 21.5921 46.9709 23.0383 46.9384C24.5268 46.9152 25.4653 45.6088 26.3606 44.2715C27.0272 43.3275 27.5403 42.2841 27.881 41.1799C27.0165 40.8136 26.279 40.2009 25.7604 39.4183C25.2418 38.6356 24.965 37.7177 24.9646 36.7789Z" fill="white"/>
<path d="M22.2381 28.6873C23.0504 27.7137 23.451 26.4618 23.3549 25.1975C22.115 25.3269 20.9694 25.9187 20.1463 26.855C19.7438 27.3124 19.4355 27.8446 19.2389 28.4213C19.0422 28.998 18.9612 29.6077 19.0004 30.2156C19.6205 30.2224 20.2341 30.0884 20.795 29.8237C21.3558 29.559 21.8492 29.1705 22.2381 28.6873Z" fill="white"/>
<path d="M42.4937 43.6293L37.7603 43.6262L36.6214 46.9819L34.6165 46.9806L39.1079 34.5655L41.1909 34.5669L45.6663 46.9878L43.6272 46.9864L42.4937 43.6293ZM38.2515 42.0777L42.0035 42.0801L40.1574 36.6317L40.1057 36.6317L38.2515 42.0777Z" fill="white"/>
<path d="M55.3518 42.4676C55.35 45.2811 53.8431 47.0877 51.5706 47.0862C50.9949 47.116 50.4225 46.983 49.9189 46.7026C49.4153 46.4221 49.0008 46.0055 48.723 45.5004L48.68 45.5004L48.6771 49.9848L46.8187 49.9836L46.8265 37.9347L48.6254 37.9358L48.6244 39.4417L48.6585 39.4418C48.9498 38.9395 49.3718 38.5256 49.8796 38.2441C50.3874 37.9626 50.962 37.824 51.5423 37.843C53.8402 37.8445 55.3536 39.6619 55.3518 42.4676ZM53.4417 42.4664C53.4429 40.6334 52.4964 39.4276 51.0511 39.4267C49.6312 39.4258 48.6753 40.6557 48.6741 42.4633C48.673 44.2875 49.6273 45.5098 51.0472 45.5107C52.4925 45.5116 53.4405 44.316 53.4417 42.4664Z" fill="white"/>
<path d="M65.3167 42.4741C65.3149 45.2876 63.8079 47.0942 61.5355 47.0927C60.9597 47.1224 60.3873 46.9895 59.8837 46.709C59.3801 46.4285 58.9657 46.012 58.6878 45.5069L58.6448 45.5069L58.6419 49.9913L56.7835 49.9901L56.7913 37.9412L58.5902 37.9423L58.5892 39.4482L58.6233 39.4482C58.9146 38.9459 59.3366 38.532 59.8445 38.2505C60.3523 37.9691 60.9268 37.8304 61.5072 37.8495C63.805 37.851 65.3186 39.6684 65.3167 42.4741ZM63.4065 42.4728C63.4077 40.6398 62.4613 39.4341 61.0159 39.4332C59.596 39.4323 58.6401 40.6621 58.6389 42.4697C58.6378 44.2939 59.5921 45.5163 61.012 45.5172C62.4574 45.5181 63.4054 44.3224 63.4065 42.4728Z" fill="white"/>
<path d="M71.9019 43.5448C72.0389 44.7763 73.2346 45.5857 74.8694 45.5867C76.4358 45.5877 77.5633 44.7799 77.564 43.6695C77.5646 42.7057 76.8853 42.128 75.2762 41.7315L73.6671 41.3427C71.3871 40.7905 70.3292 39.7234 70.3303 37.993C70.3317 35.8504 72.1999 34.3799 74.8513 34.3816C77.4753 34.3833 79.2731 35.8562 79.3323 37.9988L77.4563 37.9976C77.3448 36.7582 76.3209 36.0096 74.8238 36.0086C73.3267 36.0076 72.3018 36.7638 72.3011 37.8654C72.3005 38.7433 72.9545 39.2603 74.5549 39.6568L75.9227 39.9936C78.4703 40.5977 79.5282 41.6219 79.527 43.4383C79.5255 45.7615 77.674 47.2154 74.7306 47.2135C71.9767 47.2118 70.1183 45.7897 69.9995 43.5435L71.9019 43.5448Z" fill="white"/>
<path d="M83.5426 35.8159L83.5413 37.9585L85.263 37.9596L85.262 39.4313L83.5403 39.4302L83.5371 44.4214C83.5366 45.1968 83.8812 45.5583 84.638 45.5588C84.8424 45.5553 85.0464 45.5412 85.2493 45.5162L85.2483 46.9791C84.908 47.0425 84.5622 47.0711 84.2161 47.0643C82.3831 47.0632 81.6686 46.3742 81.6698 44.6184L81.6731 39.429L80.3567 39.4281L80.3577 37.9564L81.6741 37.9573L81.6755 35.8147L83.5426 35.8159Z" fill="white"/>
<path d="M86.2571 42.4875C86.259 39.6389 87.9378 37.85 90.554 37.8517C93.179 37.8534 94.8479 39.6445 94.846 42.4931C94.8442 45.3496 93.1818 47.1307 90.548 47.129C87.9152 47.1273 86.2553 45.344 86.2571 42.4875ZM92.9524 42.4919C92.9537 40.5378 92.0589 39.3839 90.553 39.3829C89.0472 39.3819 88.1519 40.5435 88.1506 42.4888C88.1494 44.4507 89.0432 45.5958 90.549 45.5968C92.0549 45.5978 92.9512 44.4538 92.9524 42.4919Z" fill="white"/>
<path d="M96.3812 37.9669L98.1536 37.968L98.1526 39.509L98.1956 39.5091C98.3159 39.0278 98.5981 38.6027 98.9948 38.3051C99.3916 38.0074 99.8787 37.8554 100.374 37.8748C100.589 37.8741 100.802 37.8975 101.011 37.9445L101.01 39.6828C100.74 39.6 100.458 39.5618 100.175 39.5699C99.905 39.5588 99.6359 39.6062 99.3859 39.7089C99.1361 39.8117 98.9114 39.9672 98.7272 40.165C98.5431 40.3628 98.404 40.5981 98.3194 40.8547C98.2348 41.1113 98.2068 41.3832 98.2372 41.6517L98.2337 47.0218L96.3753 47.0206L96.3812 37.9669Z" fill="white"/>
<path d="M109.576 44.3698C109.325 46.0133 107.723 47.1401 105.675 47.1388C103.041 47.1371 101.408 45.3714 101.41 42.5404C101.412 39.7006 103.056 37.8598 105.603 37.8615C108.108 37.8631 109.682 39.5848 109.68 42.3299L109.68 42.9666L103.286 42.9625L103.286 43.0748C103.255 43.408 103.297 43.7437 103.407 44.0596C103.517 44.3754 103.693 44.6643 103.923 44.9071C104.153 45.1497 104.432 45.3407 104.742 45.4672C105.052 45.5937 105.385 45.6528 105.719 45.6407C106.158 45.6822 106.599 45.5808 106.976 45.3516C107.352 45.1224 107.645 44.7777 107.811 44.3687L109.576 44.3698ZM103.294 41.6637L107.821 41.6666C107.838 41.367 107.793 41.0672 107.688 40.7858C107.584 40.5046 107.422 40.2479 107.214 40.032C107.006 39.8162 106.755 39.6456 106.478 39.5312C106.2 39.4169 105.902 39.3611 105.602 39.3673C105.299 39.3653 104.999 39.4233 104.719 39.5378C104.439 39.6523 104.185 39.8213 103.97 40.0347C103.755 40.2483 103.585 40.5021 103.469 40.7817C103.354 41.0612 103.295 41.361 103.294 41.6637Z" fill="white"/>
<path d="M38.0293 25.2173C38.4189 25.1896 38.8098 25.2487 39.1739 25.3904C39.5379 25.5321 39.8659 25.7528 40.1342 26.0366C40.4027 26.3204 40.6047 26.6601 40.7259 27.0315C40.8471 27.4029 40.8843 27.7965 40.835 28.184C40.8337 30.0902 39.8027 31.1853 38.0254 31.1842L35.8701 31.1828L35.874 25.2159L38.0293 25.2173ZM36.7974 30.3395L37.9224 30.3402C38.2009 30.3571 38.4795 30.3116 38.7381 30.2071C38.9966 30.1027 39.2287 29.942 39.4174 29.7365C39.606 29.531 39.7464 29.2861 39.8284 29.0195C39.9105 28.753 39.9321 28.4715 39.8916 28.1955C39.9294 27.9207 39.9061 27.6409 39.8232 27.3762C39.7401 27.1115 39.5997 26.8684 39.4117 26.6644C39.2239 26.4603 38.9931 26.3003 38.7361 26.1959C38.4791 26.0915 38.2021 26.0453 37.9251 26.0605L36.8001 26.0597L36.7974 30.3395Z" fill="white"/>
<path d="M41.8814 28.9332C41.8533 28.6373 41.8873 28.3388 41.9814 28.0568C42.0753 27.7748 42.2273 27.5156 42.4273 27.2957C42.6275 27.0758 42.8713 26.9002 43.1432 26.7801C43.4152 26.66 43.7092 26.5981 44.0064 26.5983C44.3037 26.5985 44.5977 26.6608 44.8694 26.7813C45.1412 26.9016 45.3848 27.0776 45.5845 27.2977C45.7844 27.5179 45.9359 27.7772 46.0296 28.0594C46.1233 28.3416 46.157 28.6401 46.1285 28.936C46.1571 29.2323 46.1235 29.5312 46.0297 29.8137C45.9359 30.0961 45.7841 30.3559 45.5839 30.5761C45.3838 30.7964 45.1398 30.9724 44.8676 31.0928C44.5954 31.2131 44.3011 31.2752 44.0034 31.275C43.7058 31.2748 43.4115 31.2123 43.1395 31.0916C42.8674 30.971 42.6236 30.7946 42.4237 30.5741C42.224 30.3536 42.0724 30.0937 41.979 29.8111C41.8856 29.5284 41.8524 29.2295 41.8814 28.9332ZM45.2144 28.9354C45.215 27.9594 44.7769 27.3883 44.0074 27.3878C43.2349 27.3873 42.8 27.9578 42.7994 28.9339C42.7987 29.9177 43.233 30.4844 44.0054 30.4849C44.7749 30.4854 45.2137 29.9154 45.2144 28.9354Z" fill="white"/>
<path d="M51.7724 31.1931L50.8506 31.1925L49.9221 27.8755L49.8518 27.8754L48.9228 31.1912L48.0097 31.1907L46.7714 26.687L47.6728 26.6875L48.4772 30.1241L48.5437 30.1241L49.4716 26.6887L50.3242 26.6892L51.2478 30.1258L51.3181 30.1259L52.123 26.6904L53.0117 26.691L51.7724 31.1931Z" fill="white"/>
<path d="M54.0556 26.6917L54.9111 26.6922L54.9107 27.4076L54.9771 27.4077C55.0898 27.1507 55.2801 26.9356 55.521 26.7919C55.762 26.6482 56.0417 26.5834 56.3213 26.6062C56.5404 26.5899 56.7604 26.6231 56.9649 26.7033C57.1695 26.7836 57.3534 26.9088 57.503 27.0697C57.6526 27.2307 57.764 27.4232 57.829 27.633C57.8941 27.8429 57.9111 28.0648 57.8788 28.282L57.8769 31.197L56.9883 31.1965L56.9901 28.5047C56.9905 27.781 56.6763 27.421 56.0191 27.4205C55.8703 27.4134 55.7218 27.4387 55.5837 27.4945C55.4456 27.5502 55.3212 27.6351 55.219 27.7434C55.1168 27.8518 55.0392 27.9809 54.9916 28.122C54.944 28.2631 54.9274 28.4128 54.9431 28.5609L54.9414 31.1952L54.0527 31.1947L54.0556 26.6917Z" fill="white"/>
<path d="M59.2971 24.9372L60.1857 24.9378L60.1816 31.1985L59.293 31.1979L59.2971 24.9372Z" fill="white"/>
<path d="M61.4185 28.9459C61.3904 28.65 61.4245 28.3514 61.5184 28.0694C61.6125 27.7873 61.7645 27.5281 61.9645 27.3083C62.1647 27.0884 62.4085 26.9128 62.6805 26.7927C62.9524 26.6726 63.2465 26.6107 63.5438 26.6109C63.8411 26.6111 64.135 26.6734 64.4068 26.7938C64.6786 26.9143 64.9222 27.0902 65.122 27.3103C65.3219 27.5304 65.4734 27.7898 65.5671 28.072C65.6609 28.3541 65.6945 28.6528 65.666 28.9486C65.6947 29.245 65.661 29.5438 65.5672 29.8264C65.4733 30.1088 65.3215 30.3685 65.1213 30.5888C64.9212 30.8091 64.6772 30.985 64.405 31.1054C64.1327 31.2258 63.8384 31.2879 63.5408 31.2877C63.2431 31.2875 62.9488 31.225 62.6768 31.1043C62.4047 30.9835 62.1609 30.8073 61.961 30.5868C61.7612 30.3662 61.6096 30.1063 61.5162 29.8238C61.4228 29.5411 61.3895 29.2422 61.4185 28.9459ZM64.7515 28.9481C64.7521 27.9721 64.314 27.401 63.5445 27.4005C62.772 27.4 62.3371 27.9705 62.3365 28.9465C62.3358 29.9304 62.7701 30.4971 63.5425 30.4976C64.312 30.4981 64.7508 29.9281 64.7515 28.9481Z" fill="white"/>
<path d="M66.6009 29.9293C66.6015 29.1187 67.2053 28.6517 68.2766 28.586L69.4964 28.5165L69.4966 28.1278C69.4969 27.6523 69.1827 27.3835 68.5752 27.3831C68.0791 27.3828 67.7353 27.5647 67.6365 27.883L66.7761 27.8825C66.8674 27.1091 67.5953 26.6135 68.6168 26.6142C69.7457 26.6149 70.382 27.1773 70.3814 28.1284L70.3794 31.2051L69.5239 31.2045L69.5243 30.5717L69.454 30.5717C69.3112 30.7986 69.1107 30.9835 68.873 31.1075C68.6352 31.2317 68.3689 31.2904 68.1011 31.2778C67.912 31.2974 67.721 31.2771 67.5402 31.2183C67.3595 31.1594 67.1931 31.0634 67.0518 30.9363C66.9105 30.8093 66.7973 30.654 66.7197 30.4805C66.642 30.3071 66.6015 30.1193 66.6009 29.9293ZM69.4957 29.5463L69.4959 29.1698L68.3963 29.2394C67.7762 29.2805 67.4947 29.4913 67.4945 29.8883C67.4942 30.2935 67.8457 30.5297 68.3291 30.53C68.4707 30.5444 68.6139 30.5302 68.7499 30.4881C68.8859 30.4461 69.0121 30.3772 69.1209 30.2855C69.2298 30.1937 69.3191 30.0809 69.3834 29.9539C69.4478 29.827 69.486 29.6883 69.4957 29.5463Z" fill="white"/>
<path d="M71.5488 28.9525C71.5497 27.5297 72.2818 26.6287 73.4195 26.6295C73.7009 26.6166 73.9801 26.6842 74.2245 26.8243C74.469 26.9643 74.6685 27.1711 74.7998 27.4204L74.8663 27.4204L74.8679 24.9473L75.7565 24.9478L75.7524 31.2086L74.9009 31.208L74.9014 30.4966L74.8311 30.4966C74.6892 30.744 74.4825 30.9479 74.2332 31.0862C73.9838 31.2245 73.7014 31.2919 73.4165 31.2813C72.271 31.2806 71.5479 30.3788 71.5488 28.9525ZM72.4668 28.9531C72.4662 29.9082 72.916 30.4831 73.669 30.4836C74.418 30.4841 74.8813 29.9014 74.8819 28.9585C74.8825 28.02 74.4151 27.4284 73.671 27.4279C72.9229 27.4274 72.4674 28.0058 72.4668 28.9531Z" fill="white"/>
<path d="M79.4307 28.9575C79.4026 28.6615 79.4367 28.3631 79.5306 28.081C79.6246 27.799 79.7766 27.5398 79.9766 27.3199C80.1768 27.1 80.4206 26.9244 80.6925 26.8044C80.9645 26.6843 81.2585 26.6223 81.5558 26.6225C81.853 26.6227 82.1469 26.685 82.4188 26.8055C82.6905 26.9259 82.9341 27.1018 83.1339 27.322C83.3337 27.5421 83.4853 27.8015 83.5789 28.0836C83.6726 28.3658 83.7063 28.6643 83.6778 28.9602C83.7064 29.2565 83.6728 29.5554 83.579 29.8379C83.4852 30.1204 83.3334 30.3801 83.1332 30.6004C82.9331 30.8206 82.6891 30.9967 82.4169 31.117C82.1447 31.2373 81.8504 31.2994 81.5528 31.2992C81.2551 31.299 80.9608 31.2365 80.6888 31.1159C80.4167 30.9952 80.173 30.8188 79.9731 30.5983C79.7733 30.3778 79.6217 30.1179 79.5283 29.8353C79.4349 29.5527 79.4017 29.2537 79.4307 28.9575ZM82.7637 28.9596C82.7643 27.9836 82.3262 27.4125 81.5567 27.412C80.7843 27.4115 80.3493 27.9821 80.3487 28.9582C80.348 29.942 80.7823 30.5086 81.5547 30.5091C82.3242 30.5096 82.763 29.9396 82.7637 28.9596Z" fill="white"/>
<path d="M84.8715 26.7116L85.727 26.7121L85.7266 27.4275L85.793 27.4276C85.9058 27.1706 86.096 26.9555 86.3369 26.8118C86.5779 26.6681 86.8577 26.6032 87.1373 26.6261C87.3564 26.6098 87.5764 26.643 87.7809 26.7232C87.9855 26.8035 88.1693 26.9287 88.3189 27.0896C88.4685 27.2506 88.5799 27.4431 88.645 27.6529C88.7101 27.8628 88.727 28.0847 88.6948 28.3019L88.6929 31.2169L87.8042 31.2164L87.806 28.5246C87.8064 27.8009 87.4922 27.4409 86.835 27.4404C86.6863 27.4333 86.5376 27.4586 86.3996 27.5144C86.2615 27.5701 86.1371 27.655 86.0349 27.7633C85.9327 27.8717 85.8552 28.0008 85.8075 28.1419C85.7599 28.283 85.7433 28.4327 85.759 28.5808L85.7573 31.2151L84.8686 31.2146L84.8715 26.7116Z" fill="white"/>
<path d="M93.7179 25.5962L93.7172 26.7378L94.6928 26.7384L94.6923 27.4869L93.7167 27.4863L93.7152 29.8018C93.7149 30.2734 93.9092 30.4801 94.3516 30.4804C94.4648 30.4801 94.578 30.4734 94.6904 30.4601L94.6899 31.2003C94.5303 31.2287 94.3686 31.2438 94.2065 31.2454C93.2182 31.2448 92.8249 30.8968 92.8255 30.0287L92.8271 27.4857L92.1122 27.4853L92.1127 26.7367L92.8276 26.7371L92.8283 25.5956L93.7179 25.5962Z" fill="white"/>
<path d="M95.9079 24.9609L96.7887 24.9614L96.7871 27.4429L96.8575 27.4429C96.9757 27.1837 97.1711 26.9672 97.4169 26.8231C97.6627 26.6788 97.9469 26.6139 98.231 26.6372C98.4489 26.6254 98.6668 26.662 98.869 26.7441C99.0713 26.8263 99.2528 26.9522 99.4009 27.1126C99.5489 27.273 99.6597 27.4641 99.7253 27.6723C99.791 27.8805 99.8098 28.1005 99.7806 28.3169L99.7787 31.2241L98.8892 31.2235L98.891 28.5355C98.8914 27.8163 98.5567 27.4518 97.9288 27.4514C97.776 27.4388 97.6224 27.4597 97.4785 27.5126C97.3348 27.5656 97.2042 27.6493 97.0962 27.7581C96.9881 27.8667 96.9051 27.9977 96.8529 28.1418C96.8008 28.2859 96.7807 28.4397 96.7942 28.5923L96.7925 31.2222L95.9038 31.2216L95.9079 24.9609Z" fill="white"/>
<path d="M104.961 30.0117C104.84 30.4232 104.579 30.779 104.221 31.0169C103.864 31.2548 103.435 31.3597 103.009 31.3132C102.712 31.3208 102.417 31.2638 102.145 31.1461C101.872 31.0283 101.629 30.8528 101.432 30.6316C101.234 30.4102 101.087 30.1486 101 29.8648C100.913 29.5808 100.889 29.2816 100.931 28.9876C100.891 28.6927 100.916 28.3928 101.002 28.1082C101.089 27.8235 101.236 27.5609 101.433 27.338C101.63 27.115 101.873 26.9369 102.144 26.8159C102.416 26.6949 102.711 26.6337 103.008 26.6364C104.261 26.6372 105.017 27.4937 105.016 28.9077L105.016 29.2178L101.836 29.2157L101.835 29.2655C101.821 29.4308 101.842 29.5971 101.896 29.754C101.95 29.9107 102.037 30.0544 102.149 30.176C102.262 30.2975 102.399 30.3941 102.552 30.4596C102.704 30.5251 102.869 30.5581 103.034 30.5563C103.247 30.582 103.462 30.5439 103.653 30.4468C103.844 30.3497 104.001 30.198 104.106 30.0111L104.961 30.0117ZM101.836 28.5585L104.111 28.56C104.122 28.4089 104.101 28.2571 104.05 28.1142C103.999 27.9715 103.919 27.841 103.815 27.7311C103.711 27.6211 103.585 27.5342 103.445 27.4761C103.305 27.4178 103.155 27.3894 103.003 27.3928C102.849 27.3908 102.697 27.4195 102.555 27.4774C102.412 27.5352 102.283 27.621 102.173 27.7296C102.065 27.8383 101.979 27.9676 101.921 28.11C101.863 28.2523 101.834 28.4048 101.836 28.5585Z" fill="white"/>
</g>
<path d="M261.209 16.6308L136.209 16.5501C133.447 16.5483 131.207 18.7855 131.205 21.5469L131.186 51.5469C131.184 54.3083 133.421 56.5483 136.183 56.5501L261.183 56.6308C263.944 56.6326 266.184 54.3955 266.186 51.6341L266.205 21.6341C266.207 18.8727 263.97 16.6326 261.209 16.6308Z" fill="black"/>
<path d="M261.208 17.4308C262.322 17.4316 263.39 17.8748 264.177 18.6629C264.965 19.4511 265.406 20.5196 265.405 21.6336L265.386 51.6335C265.385 52.7474 264.943 53.8155 264.154 54.6026C263.366 55.3897 262.297 55.8316 261.183 55.8308L136.183 55.7501C135.069 55.7494 134.001 55.3062 133.214 54.518C132.427 53.7299 131.985 52.6613 131.986 51.5474L132.005 21.5474C132.006 20.4335 132.449 19.3655 133.238 18.5783C134.026 17.7912 135.094 17.3494 136.208 17.3501L261.208 17.4308ZM261.209 16.6308L136.209 16.5501C134.883 16.5492 133.611 17.0752 132.672 18.0123C131.734 18.9494 131.206 20.2208 131.205 21.5469L131.186 51.5469C131.185 52.873 131.711 54.1451 132.648 55.0833C133.585 56.0216 134.857 56.5492 136.183 56.5501L261.183 56.6308C262.509 56.6317 263.781 56.1057 264.72 55.1686C265.657 54.2316 266.185 52.9602 266.186 51.6341L266.205 21.6341C266.206 20.308 265.68 19.0359 264.744 18.0976C263.806 17.1593 262.535 16.6317 261.209 16.6308Z" fill="#A6A6A6"/>
<path d="M178.622 26.8175C178.638 27.1842 178.58 27.5505 178.451 27.8941C178.322 28.2377 178.125 28.5517 177.871 28.817C177.587 29.1102 177.244 29.3399 176.864 29.4913C176.485 29.6427 176.078 29.7123 175.67 29.6956C175.26 29.7045 174.852 29.6291 174.472 29.474C174.092 29.319 173.748 29.0876 173.461 28.7942C173.165 28.5065 172.931 28.1608 172.775 27.7787C172.619 27.3965 172.543 26.9863 172.552 26.5736C172.542 26.1592 172.618 25.7471 172.775 25.3634C172.931 24.9797 173.166 24.6326 173.464 24.3442C173.91 23.9091 174.474 23.6156 175.086 23.5003C175.698 23.3851 176.331 23.4533 176.904 23.6964C177.265 23.8449 177.586 24.0743 177.844 24.367L177.313 24.8967C177.115 24.6573 176.863 24.4675 176.579 24.3423C176.294 24.2172 175.984 24.1601 175.674 24.1756C175.362 24.1739 175.052 24.2352 174.764 24.356C174.476 24.4768 174.215 24.6545 173.997 24.8785C173.78 25.1024 173.61 25.3681 173.497 25.6594C173.384 25.9508 173.332 26.2619 173.342 26.5741C173.336 27.0402 173.467 27.4979 173.72 27.8895C173.973 28.281 174.336 28.589 174.764 28.7742C175.192 28.9596 175.665 29.0141 176.123 28.9309C176.582 28.8477 177.006 28.6305 177.341 28.3067C177.65 27.9729 177.831 27.541 177.852 27.087L175.672 27.0856L175.672 26.3656L178.582 26.3675C178.605 26.5165 178.618 26.6668 178.622 26.8175Z" fill="white" stroke="white" stroke-width="0.2" stroke-miterlimit="10"/>
<path d="M183.204 24.3204L180.504 24.3187L180.502 26.2187L182.962 26.2203L182.962 26.9403L180.502 26.9387L180.501 28.8387L183.201 28.8404L183.2 29.5804L179.72 29.5782L179.724 23.5782L183.204 23.5804L183.204 24.3204Z" fill="white" stroke="white" stroke-width="0.2" stroke-miterlimit="10"/>
<path d="M186.48 29.5826L185.71 29.5821L185.714 24.3221L184.034 24.321L184.034 23.581L188.204 23.5837L188.204 24.3237L186.484 24.3226L186.48 29.5826Z" fill="white" stroke="white" stroke-width="0.2" stroke-miterlimit="10"/>
<path d="M191.14 29.5856L191.144 23.5856L191.914 23.5861L191.91 29.5861L191.14 29.5856Z" fill="white" stroke="white" stroke-width="0.2" stroke-miterlimit="10"/>
<path d="M195.33 29.5883L194.56 29.5878L194.564 24.3278L192.884 24.3267L192.884 23.5867L197.004 23.5894L197.004 24.3294L195.334 24.3283L195.33 29.5883Z" fill="white" stroke="white" stroke-width="0.2" stroke-miterlimit="10"/>
<path d="M204.811 28.8143C204.522 29.1032 204.179 29.3323 203.801 29.4885C203.423 29.6447 203.019 29.725 202.61 29.7247C202.201 29.7244 201.797 29.6437 201.42 29.4869C201.042 29.3303 200.699 29.1008 200.411 28.8115C200.12 28.5212 199.892 28.1743 199.741 27.7923C199.59 27.4104 199.519 27.0015 199.532 26.5909C199.519 26.1803 199.591 25.7715 199.742 25.3897C199.894 25.0079 200.122 24.6614 200.414 24.3715C200.696 24.0745 201.038 23.8401 201.417 23.6836C201.797 23.5271 202.204 23.4519 202.614 23.4629C203.024 23.4567 203.43 23.5343 203.808 23.6911C204.186 23.8478 204.529 24.0803 204.814 24.3743C205.101 24.667 205.327 25.0143 205.478 25.3957C205.628 25.7771 205.701 26.1848 205.692 26.5949C205.705 27.0055 205.633 27.4143 205.482 27.796C205.33 28.1778 205.102 28.5244 204.811 28.8143ZM200.981 28.3118C201.194 28.5279 201.448 28.6994 201.727 28.8166C202.007 28.9338 202.307 28.9942 202.611 28.9944C202.914 28.9946 203.214 28.9346 203.494 28.8178C203.774 28.7009 204.028 28.5297 204.241 28.3139C204.463 28.0871 204.636 27.8179 204.752 27.5225C204.867 27.227 204.922 26.9114 204.912 26.5944C204.917 26.2745 204.856 25.9571 204.734 25.6613C204.613 25.3656 204.432 25.0977 204.203 24.8739C203.99 24.6579 203.737 24.4863 203.457 24.3692C203.177 24.252 202.877 24.1915 202.574 24.1913C202.27 24.1912 201.97 24.2512 201.69 24.368C201.41 24.4848 201.156 24.6561 200.943 24.8718C200.729 25.1019 200.562 25.3726 200.454 25.6679C200.346 25.9632 200.297 26.2772 200.312 26.5914C200.302 26.9084 200.356 27.2241 200.471 27.5197C200.586 27.8153 200.76 28.0847 200.981 28.3118Z" fill="white" stroke="white" stroke-width="0.2" stroke-miterlimit="10"/>
<path d="M206.78 29.5957L206.784 23.5957L207.714 23.5963L210.631 28.2682L210.632 27.1082L210.634 23.5982L211.404 23.5987L211.4 29.5987L210.6 29.5982L207.554 24.7062L207.553 25.8562L207.55 29.5962L206.78 29.5957Z" fill="white" stroke="white" stroke-width="0.2" stroke-miterlimit="10"/>
<path d="M199.335 38.3408C198.492 38.3422 197.669 38.5935 196.969 39.0627C196.269 39.5321 195.725 40.1983 195.404 40.9772C195.082 41.7562 195 42.6129 195.165 43.439C195.331 44.2651 195.738 45.0235 196.335 45.6181C196.932 46.2129 197.691 46.6174 198.518 46.7804C199.345 46.9433 200.201 46.8575 200.979 46.5337C201.757 46.2099 202.421 45.6629 202.888 44.9615C203.355 44.2602 203.603 43.4361 203.602 42.5935C203.611 42.0315 203.506 41.4735 203.294 40.9527C203.083 40.4319 202.768 39.9591 202.37 39.5622C201.972 39.1655 201.498 38.8529 200.977 38.6429C200.455 38.4331 199.897 38.3303 199.335 38.3408ZM199.33 45.1708C198.814 45.2065 198.299 45.0862 197.852 44.8252C197.404 44.5643 197.046 44.1749 196.823 43.7077C196.601 43.2403 196.523 42.7169 196.602 42.2052C196.681 41.6935 196.911 41.2173 197.264 40.8385C197.617 40.4597 198.076 40.1958 198.58 40.0811C199.085 39.9664 199.613 40.0063 200.095 40.1954C200.577 40.3846 200.99 40.7142 201.282 41.1417C201.574 41.5692 201.731 42.0746 201.732 42.5923C201.748 42.9203 201.698 43.2483 201.585 43.5566C201.472 43.8651 201.299 44.1477 201.075 44.3881C200.851 44.6285 200.581 44.8215 200.282 44.9559C199.982 45.0903 199.659 45.1634 199.33 45.1708ZM190.015 38.3348C189.172 38.3362 188.349 38.5875 187.649 39.0567C186.949 39.5261 186.405 40.1923 186.084 40.9712C185.762 41.7502 185.68 42.6069 185.845 43.433C186.011 44.2591 186.418 45.0174 187.015 45.6121C187.612 46.2069 188.371 46.6114 189.198 46.7743C190.025 46.9373 190.881 46.8515 191.659 46.5277C192.437 46.2039 193.101 45.6569 193.568 44.9555C194.035 44.2542 194.283 43.4301 194.282 42.5875C194.291 42.0255 194.186 41.4675 193.974 40.9467C193.763 40.4259 193.448 39.9531 193.05 39.5562C192.652 39.1595 192.178 38.8469 191.657 38.6369C191.135 38.4271 190.577 38.3243 190.015 38.3348ZM190.01 45.1648C189.494 45.2005 188.979 45.0802 188.532 44.8192C188.084 44.5583 187.726 44.1689 187.503 43.7016C187.281 43.2343 187.203 42.7108 187.282 42.1992C187.361 41.6874 187.591 41.2113 187.944 40.8325C188.297 40.4536 188.756 40.1897 189.26 40.0751C189.765 39.9604 190.293 40.0002 190.775 40.1893C191.257 40.3786 191.67 40.7082 191.962 41.1357C192.254 41.5632 192.411 42.0686 192.412 42.5863C192.428 42.9143 192.378 43.2423 192.265 43.5506C192.152 43.859 191.979 44.1417 191.755 44.3821C191.531 44.6224 191.261 44.8155 190.962 44.9499C190.662 45.0843 190.339 45.1574 190.01 45.1648ZM178.934 39.6376L178.933 41.4376L183.253 41.4404C183.185 42.2881 182.831 43.0879 182.251 43.7097C181.818 44.151 181.296 44.4963 180.721 44.7233C180.145 44.9503 179.529 45.054 178.91 45.0276C177.637 45.0268 176.417 44.5203 175.517 43.6195C174.618 42.7188 174.113 41.4976 174.114 40.2245C174.114 38.9515 174.621 37.7309 175.522 36.8313C176.422 35.9317 177.644 35.4268 178.917 35.4276C180.137 35.4103 181.315 35.8744 182.196 36.7197L183.467 35.4505C182.871 34.8606 182.164 34.3956 181.386 34.0826C180.608 33.7696 179.776 33.6148 178.938 33.6276C178.049 33.5924 177.162 33.7371 176.33 34.0529C175.498 34.3687 174.739 34.8492 174.097 35.4655C173.456 36.0819 172.945 36.8213 172.596 37.6397C172.247 38.4581 172.067 39.3385 172.066 40.2282C172.066 41.1179 172.245 41.9985 172.593 42.8173C172.941 43.6361 173.45 44.3764 174.091 44.9935C174.732 45.6107 175.491 46.0921 176.322 46.409C177.154 46.7259 178.04 46.8716 178.929 46.8376C179.785 46.8723 180.638 46.7257 181.432 46.4074C182.227 46.089 182.946 45.6062 183.54 44.9906C184.591 43.8377 185.152 42.3208 185.103 40.7616C185.107 40.3863 185.077 40.0115 185.014 39.6415L178.934 39.6376ZM224.243 41.0669C223.983 40.2995 223.495 39.6292 222.846 39.1449C222.196 38.6604 221.415 38.3848 220.605 38.3545C220.058 38.3532 219.516 38.4639 219.014 38.6801C218.511 38.8962 218.059 39.2131 217.683 39.6112C217.308 40.0093 217.019 40.4801 216.833 40.9945C216.647 41.5089 216.568 42.056 216.602 42.6019C216.593 43.5148 216.879 44.4061 217.418 45.1428C217.958 45.8794 218.721 46.4218 219.594 46.6891C220.467 46.9562 221.403 46.9339 222.262 46.6253C223.121 46.3167 223.857 45.7385 224.36 44.9769L222.911 43.976C222.695 44.3362 222.388 44.6335 222.021 44.8384C221.654 45.0435 221.24 45.149 220.82 45.1447C220.387 45.1623 219.958 45.0484 219.591 44.818C219.223 44.5874 218.934 44.2512 218.761 43.8533L224.453 41.507L224.243 41.0669ZM218.442 42.4831C218.422 42.173 218.464 41.862 218.566 41.5684C218.668 41.2749 218.828 41.0047 219.036 40.7737C219.244 40.5427 219.496 40.3557 219.777 40.2236C220.058 40.0916 220.363 40.0171 220.674 40.0046C220.995 39.9843 221.315 40.0588 221.594 40.2191C221.873 40.3792 222.099 40.618 222.243 40.9056L218.442 42.4831ZM213.819 46.6001L215.689 46.6013L215.698 34.1013L213.828 34.1001L213.819 46.6001ZM210.764 39.2982L210.694 39.2981C210.41 38.9889 210.064 38.744 209.678 38.5799C209.291 38.4158 208.874 38.3362 208.455 38.3467C207.362 38.399 206.331 38.8697 205.576 39.6614C204.821 40.4531 204.399 41.5049 204.398 42.599C204.398 43.6931 204.818 44.7456 205.572 45.5382C206.326 46.3309 207.357 46.803 208.449 46.8567C208.873 46.8654 209.294 46.7805 209.681 46.6079C210.069 46.4353 210.413 46.1792 210.69 45.8581L210.76 45.8582L210.76 46.4682C210.758 48.0982 209.888 48.9676 208.488 48.9667C208.02 48.9561 207.566 48.8068 207.184 48.5377C206.801 48.2686 206.507 47.8919 206.339 47.4553L204.718 48.1243C205.017 48.8767 205.538 49.5207 206.211 49.9711C206.883 50.4215 207.677 50.6571 208.487 50.6467C210.677 50.6481 212.488 49.3593 212.49 46.2193L212.495 38.5993L210.765 38.5982L210.764 39.2982ZM208.61 45.1768C207.955 45.1355 207.34 44.846 206.891 44.3674C206.442 43.8887 206.192 43.2567 206.193 42.6002C206.193 41.9438 206.444 41.3122 206.893 40.8341C207.343 40.3559 207.958 40.0672 208.614 40.0268C208.934 40.0408 209.248 40.1191 209.537 40.2571C209.827 40.395 210.085 40.5896 210.298 40.8296C210.511 41.0695 210.673 41.3497 210.775 41.6536C210.877 41.9574 210.917 42.2787 210.892 42.5982C210.919 42.919 210.881 43.2418 210.78 43.5474C210.678 43.8528 210.516 44.1346 210.303 44.3757C210.09 44.6167 209.83 44.812 209.539 44.9497C209.248 45.0874 208.932 45.1647 208.61 45.1768ZM233.007 34.1125L228.528 34.1096L228.519 46.6096L230.389 46.6108L230.392 41.8708L233.002 41.8725C233.535 41.9112 234.07 41.8396 234.575 41.6622C235.079 41.485 235.541 41.2058 235.932 40.8419C236.323 40.4782 236.636 40.0377 236.849 39.5479C237.063 39.058 237.174 38.5295 237.174 37.9952C237.174 37.4609 237.065 36.9322 236.851 36.4422C236.638 35.9522 236.326 35.5113 235.936 35.1469C235.545 34.7827 235.083 34.5028 234.579 34.3248C234.075 34.1469 233.54 34.0746 233.007 34.1125ZM233.004 40.1125L230.394 40.1108L230.396 35.8508L233.046 35.8526C233.614 35.8529 234.158 36.0788 234.559 36.4803C234.961 36.8819 235.185 37.4264 235.185 37.9939C235.185 38.5615 234.959 39.1057 234.557 39.5067C234.156 39.9079 233.612 40.1329 233.044 40.1325L233.004 40.1125ZM244.545 38.33C243.864 38.2875 243.186 38.4457 242.593 38.7847C242.001 39.1238 241.522 39.629 241.213 40.2378L242.863 40.9289C243.03 40.6284 243.28 40.3827 243.583 40.2214C243.888 40.0602 244.232 39.9902 244.574 40.02C244.811 39.9925 245.052 40.0124 245.282 40.0788C245.511 40.1452 245.724 40.2566 245.911 40.4066C246.097 40.5566 246.251 40.7421 246.365 40.9524C246.479 41.1626 246.549 41.3935 246.573 41.6313L246.572 41.7513C245.972 41.4348 245.302 41.2697 244.623 41.27C242.843 41.2689 241.022 42.2677 241.021 44.0877C241.039 44.4746 241.133 44.854 241.3 45.2035C241.467 45.5529 241.703 45.8652 241.993 46.1219C242.282 46.3787 242.621 46.5745 242.988 46.6978C243.355 46.8211 243.743 46.8694 244.129 46.8397C244.598 46.866 245.066 46.767 245.484 46.5529C245.904 46.3388 246.257 46.0173 246.51 45.6212L246.57 45.6213L246.569 46.6213L248.369 46.6225L248.372 41.8124C248.374 39.6224 246.715 38.3514 244.585 38.35L244.545 38.33ZM244.31 45.1798C243.7 45.1794 242.85 44.8689 242.851 44.1189C242.852 43.1189 243.912 42.7796 244.852 42.7802C245.446 42.766 246.033 42.9113 246.552 43.2013C246.488 43.7443 246.231 44.2461 245.826 44.6135C245.421 44.981 244.897 45.1893 244.35 45.1999L244.31 45.1798ZM254.934 38.6267L252.791 44.0453L252.731 44.0453L250.514 38.6238L248.514 38.6225L251.84 46.2047L249.937 50.4135L251.937 50.4148L257.014 38.628L254.934 38.6267ZM238.129 46.6158L239.989 46.617L239.997 34.117L238.137 34.1158L238.129 46.6158Z" fill="white"/>
<path d="M141.644 24.0936C141.325 24.4875 141.167 24.9877 141.203 25.4933L141.189 47.6133C141.154 48.1237 141.323 48.6269 141.658 49.0136L141.728 49.0937L154.096 36.7117L154.096 36.4117L141.714 24.0236L141.644 24.0936Z" fill="url(#paint0_linear_1_21)"/>
<path d="M158.193 40.8443L154.096 36.7117L154.096 36.4117L158.198 32.2843L158.288 32.3444L163.197 35.1276C164.596 35.9185 164.595 37.2185 163.195 38.0176L158.303 40.7944L158.193 40.8443Z" fill="url(#paint1_linear_1_21)"/>
<path d="M158.313 40.7944L154.096 36.5616L141.628 49.0136C141.91 49.2653 142.272 49.4102 142.65 49.4232C143.028 49.4363 143.399 49.3166 143.698 49.0849L158.313 40.7944Z" fill="url(#paint2_linear_1_21)"/>
<path d="M158.318 32.3444L143.714 24.0349C143.417 23.7996 143.047 23.6765 142.668 23.6873C142.29 23.698 141.927 23.8419 141.644 24.0936L154.096 36.5616L158.318 32.3444Z" fill="url(#paint3_linear_1_21)"/>
<path opacity="0.2" d="M158.193 40.6942L143.698 48.9349C143.41 49.1521 143.058 49.2695 142.697 49.2692C142.337 49.269 141.986 49.1512 141.698 48.9336L141.628 49.0035L141.698 49.0836C141.986 49.3012 142.337 49.419 142.697 49.4192C143.058 49.4195 143.409 49.3021 143.698 49.0849L158.313 40.7943L158.193 40.6942Z" fill="black"/>
<path opacity="0.12" d="M141.628 48.8735C141.307 48.4767 141.15 47.9721 141.189 47.4632L141.189 47.6132C141.154 48.1236 141.323 48.6269 141.658 49.0135L141.728 48.9435L141.628 48.8735Z" fill="black"/>
<path opacity="0.12" d="M163.195 37.8676L158.193 40.6943L158.283 40.7944L163.195 38.0076C163.485 37.8851 163.736 37.6869 163.923 37.4336C164.11 37.1804 164.225 36.8814 164.256 36.5682C164.193 36.8528 164.064 37.1186 163.88 37.3443C163.696 37.57 163.461 37.7492 163.195 37.8676Z" fill="black"/>
<path opacity="0.25" d="M143.714 24.1749L163.197 35.2676C163.463 35.3862 163.697 35.5658 163.881 35.7917C164.065 36.0176 164.193 36.2836 164.256 36.5682C164.225 36.255 164.11 35.9559 163.924 35.7024C163.738 35.4489 163.486 35.2502 163.197 35.1276L143.714 24.0349C142.324 23.234 141.204 23.8933 141.203 25.4933L141.203 25.6433C141.204 24.0433 142.324 23.384 143.714 24.1749Z" fill="white"/>
<defs>
<linearGradient id="paint0_linear_1_21" x1="153.003" y1="25.2709" x2="136.212" y2="42.0401" gradientUnits="userSpaceOnUse">
<stop stop-color="#00A0FF"/>
<stop offset="0.01" stop-color="#00A1FF"/>
<stop offset="0.26" stop-color="#00BEFF"/>
<stop offset="0.51" stop-color="#00D2FF"/>
<stop offset="0.76" stop-color="#00DFFF"/>
<stop offset="1" stop-color="#00E3FF"/>
</linearGradient>
<linearGradient id="paint1_linear_1_21" x1="165.026" y1="36.5687" x2="140.836" y2="36.5531" gradientUnits="userSpaceOnUse">
<stop stop-color="#FFE000"/>
<stop offset="0.41" stop-color="#FFBD00"/>
<stop offset="0.78" stop-color="#FFA500"/>
<stop offset="1" stop-color="#FF9C00"/>
</linearGradient>
<linearGradient id="paint2_linear_1_21" x1="156.024" y1="38.8629" x2="133.25" y2="61.5982" gradientUnits="userSpaceOnUse">
<stop stop-color="#FF3A44"/>
<stop offset="1" stop-color="#C31162"/>
</linearGradient>
<linearGradient id="paint3_linear_1_21" x1="138.509" y1="16.7315" x2="148.662" y2="26.8981" gradientUnits="userSpaceOnUse">
<stop stop-color="#32A071"/>
<stop offset="0.07" stop-color="#2DA771"/>
<stop offset="0.48" stop-color="#15CF74"/>
<stop offset="0.8" stop-color="#06E775"/>
<stop offset="1" stop-color="#00F076"/>
</linearGradient>
</defs>
</svg>
