<svg width="172" height="44" viewBox="0 0 172 44" fill="none" xmlns="http://www.w3.org/2000/svg">
<g clip-path="url(#clip0_1_969)">
<g clip-path="url(#clip1_1_969)">
<g clip-path="url(#clip2_1_969)">
<path d="M76.9646 26.7303C76.9618 31.0771 71.5528 30.8157 71.5528 30.8157L66.1437 30.8122L66.1487 22.9578L71.5578 22.9613C77.1245 22.9275 76.9646 26.7303 76.9646 26.7303ZM66.1565 10.9792L70.2783 10.9818C74.5582 11.2107 74.3946 14.3972 74.3946 14.3972C74.3921 18.3574 69.6593 18.4189 69.6593 18.4189L66.1517 18.4166L66.1565 10.9792ZM75.9684 19.9675C75.9684 19.9675 79.6719 18.3922 79.6416 14.2075C79.6416 14.2075 80.2091 7.34981 71.1233 6.50746L61.0408 6.50094L61.0222 35.2515L72.5792 35.259C72.5792 35.259 82.2355 35.294 82.2408 27.1531C82.2407 27.1531 82.4726 21.6132 75.9684 19.9675ZM49.8876 0.86023L92.3369 0.887648L92.311 40.8892L49.8618 40.8618L49.8876 0.86023ZM28.0139 26.6987C28.0111 31.0455 22.602 30.784 22.602 30.784L17.1925 30.7805L17.1976 22.9261L22.6071 22.9296C28.1743 22.8959 28.0139 26.6987 28.0139 26.6987ZM17.2053 10.9476L21.328 10.9502C25.6081 11.1791 25.4441 14.3656 25.4441 14.3656C25.4415 18.3257 20.709 18.3872 20.709 18.3872L17.2005 18.385L17.2053 10.9476ZM27.0182 19.9359C27.0182 19.9359 30.7222 18.3606 30.6916 14.1759C30.6916 14.1759 31.2587 7.31819 22.1728 6.47584L12.09 6.46933L12.0714 35.2199L23.6291 35.2273C23.6291 35.2273 33.2853 35.2624 33.2905 27.1215C33.2905 27.1215 33.5216 21.5816 27.0182 19.9359ZM0.937317 0.828613L43.3866 0.856031L43.3608 40.8576L0.91148 40.8302L0.937317 0.828613ZM132.623 8.60836L132.619 13.92C132.619 13.92 127.437 10.7305 121.707 10.6626C121.707 10.6626 111.018 10.4459 110.53 20.9017C110.53 20.9017 110.137 30.5172 121.565 31.0725C121.565 31.0725 126.36 31.6532 132.868 27.5092L132.864 33.0102C132.864 33.0102 124.135 38.1889 114.029 34.1893C114.029 34.1893 105.533 31.0808 105.216 20.8982C105.216 20.8982 104.87 10.4252 116.205 6.95608C116.205 6.95608 119.232 5.79945 124.67 6.3179C124.67 6.31776 127.921 6.6414 132.623 8.60836ZM98.8122 40.8934L141.261 40.9208L141.287 0.919265L98.838 0.891847L98.8122 40.8934Z" fill="black"/>
</g>
</g>
</g>
<defs>
<clipPath id="clip0_1_969">
<rect width="140.35" height="40" fill="white" transform="translate(0.937317 0.828613) rotate(0.0370072)"/>
</clipPath>
<clipPath id="clip1_1_969">
<rect width="140.35" height="40" fill="white" transform="translate(0.937317 0.828613) rotate(0.0370072)"/>
</clipPath>
<clipPath id="clip2_1_969">
<rect width="140.35" height="39.9997" fill="white" transform="translate(0.937317 0.828613) rotate(0.0370072)"/>
</clipPath>
</defs>
</svg>
