<svg width="101" height="67" viewBox="0 0 101 67" fill="none" xmlns="http://www.w3.org/2000/svg">
<g clip-path="url(#clip0_1_974)">
<g clip-path="url(#clip1_1_974)">
<g clip-path="url(#clip2_1_974)">
<path d="M67.5885 28.9982C65.8474 25.5695 61.6576 24.2045 58.2328 25.9465C57.9628 26.0835 57.707 26.2388 57.4614 26.4031L39.0921 39.105L61.3852 39.1194C62.4455 39.1201 63.5314 38.879 64.5414 38.3646C67.9651 36.6174 69.3305 32.4268 67.5885 28.9982Z" fill="#0CB14B"/>
<path d="M67.5885 28.9982C65.8474 25.5695 61.6576 24.2045 58.2328 25.9465C57.9628 26.0835 57.707 26.2388 57.4614 26.4031L39.0921 39.105L61.3852 39.1194C62.4455 39.1201 63.5314 38.879 64.5414 38.3646C67.9651 36.6174 69.3305 32.4268 67.5885 28.9982Z" stroke="white" stroke-width="2.298" stroke-miterlimit="3.864"/>
<path d="M49.7663 14.5463L40.1265 36.7063L59.9748 22.9775C60.4022 22.6811 60.8032 22.3279 61.1678 21.9278C63.7115 19.1033 63.4849 14.7511 60.6647 12.2066C57.8465 9.65801 53.4973 9.8858 50.9547 12.7093C50.45 13.2718 50.0559 13.8923 49.7663 14.5463Z" fill="#0089D0"/>
<path d="M49.7663 14.5463L40.1265 36.7063L59.9748 22.9775C60.4022 22.6811 60.8032 22.3279 61.1678 21.9278C63.7115 19.1033 63.4849 14.7511 60.6647 12.2066C57.8465 9.65801 53.4973 9.8858 50.9547 12.7093C50.45 13.2718 50.0559 13.8923 49.7663 14.5463Z" stroke="white" stroke-width="2.298" stroke-miterlimit="3.864"/>
<path d="M49.7218 11.2779C49.985 10.6584 50.162 9.99108 50.2355 9.28712C50.6408 5.4616 47.8678 2.03226 44.0478 1.62751C40.2266 1.22377 36.8012 3.99794 36.3978 7.82346C36.3581 8.2054 36.3467 8.58634 36.3697 8.96224L36.3626 8.96223C36.3625 9.07804 36.4133 9.13192 36.5432 9.132C36.671 9.13208 38.2154 9.13308 38.3909 9.13319C38.7684 9.13344 39.3325 9.24554 39.3323 9.54319C39.3322 9.77075 38.3285 9.98343 37.7092 10.5794C37.0563 11.2058 36.7592 12.3261 36.9148 13.404L36.9148 13.3979L39.9922 34.2416L49.7218 11.2779Z" fill="#645FAA"/>
<path d="M49.7218 11.2779C49.985 10.6584 50.162 9.99108 50.2355 9.28712C50.6408 5.4616 47.8678 2.03226 44.0478 1.62751C40.2266 1.22377 36.8012 3.99794 36.3978 7.82346C36.3581 8.2054 36.3467 8.58634 36.3697 8.96224L36.3626 8.96223C36.3625 9.07804 36.4133 9.13192 36.5432 9.132C36.671 9.13208 38.2154 9.13308 38.3909 9.13319C38.7684 9.13344 39.3325 9.24554 39.3323 9.54319C39.3322 9.77075 38.3285 9.98343 37.7092 10.5794C37.0563 11.2058 36.7592 12.3261 36.9148 13.404L36.9148 13.3979L39.9922 34.2416L49.7218 11.2779Z" stroke="white" stroke-width="2.298" stroke-miterlimit="3.864"/>
<path d="M9.95356 39.0865L32.2436 39.1009L13.8887 26.3754C13.6463 26.2107 13.3887 26.055 13.1209 25.9178C9.69633 24.1713 5.50472 25.5309 3.76127 28.9573C2.01376 32.3837 3.37381 36.5761 6.79527 38.3277C7.80559 38.8433 8.89219 39.0858 9.95356 39.0865Z" fill="#FDB913"/>
<path d="M9.95356 39.0865L32.2436 39.1009L13.8887 26.3754C13.6463 26.2107 13.3887 26.055 13.1209 25.9178C9.69633 24.1713 5.50472 25.5309 3.76127 28.9573C2.01376 32.3837 3.37381 36.5761 6.79527 38.3277C7.80559 38.8433 8.89218 39.0858 9.95356 39.0865Z" stroke="white" stroke-width="2.298" stroke-miterlimit="3.864"/>
<path d="M21.6012 14.5281L31.2113 36.6997L11.3817 22.9451C10.9547 22.6482 10.5541 22.2944 10.1921 21.8939C7.6521 19.0661 7.88322 14.7143 10.7057 12.1733C13.5303 9.62839 17.8751 9.86179 20.4162 12.6886C20.9201 13.2527 21.3165 13.8737 21.6012 14.5281Z" fill="#F37021"/>
<path d="M21.6012 14.5281L31.2113 36.6997L11.3817 22.9451C10.9547 22.6482 10.5541 22.2944 10.1921 21.8939C7.6521 19.0661 7.88322 14.7143 10.7057 12.1733C13.5303 9.62839 17.8751 9.86179 20.4162 12.6886C20.9201 13.2527 21.3165 13.8737 21.6012 14.5281Z" stroke="white" stroke-width="2.298" stroke-miterlimit="3.864"/>
<path d="M35.0048 8.96145L31.3477 34.2361L21.6488 11.2599C21.3874 10.64 21.2132 9.97247 21.1397 9.26842C20.7403 5.44238 23.5168 2.01662 27.3363 1.6168C31.158 1.218 34.5808 3.99659 34.9771 7.82263C35.0185 8.20462 35.0263 8.58558 35.0048 8.96145Z" fill="#C8234A"/>
<path d="M35.0048 8.96145L31.3477 34.2361L21.6488 11.2599C21.3874 10.64 21.2132 9.97247 21.1397 9.26842C20.7403 5.44238 23.5168 2.01662 27.3363 1.6168C31.158 1.218 34.5808 3.99659 34.9771 7.82263C35.0185 8.20462 35.0263 8.58558 35.0048 8.96145Z" stroke="white" stroke-width="2.298" stroke-miterlimit="3.864"/>
<path d="M14.4172 45.3786C14.1765 44.2071 13.2168 43.8987 12.1464 43.7974C8.68236 43.4742 8.06476 46.0632 8.06406 47.1583C8.06285 49.0275 8.60878 50.5618 12.0111 50.564C12.6362 50.5644 14.3687 49.9347 14.3694 48.8863L19.2602 48.8895C19.0634 51.999 13.8301 52.7422 11.549 52.7407C6.82149 52.7377 2.77643 51.8554 2.97426 47.1997C3.11948 43.8739 6.26049 41.5414 12.5089 41.6897C15.9894 41.7763 19.3331 42.8604 19.3457 45.3828L14.4172 45.3786Z" fill="#231F20"/>
<path d="M63.4043 45.4098C63.1646 44.2384 62.2058 43.9299 61.1344 43.8287C57.6714 43.5054 57.0549 46.0944 57.0541 47.1895C57.0529 49.0587 57.5968 50.5931 60.9991 50.5953C61.6252 50.5957 63.3577 49.966 63.3584 48.9176L68.2472 48.9208C68.0514 52.0302 62.8191 52.7735 60.538 52.772C55.8115 52.7689 51.7655 51.8866 51.9643 47.2309C52.1055 43.9051 55.2465 41.5727 61.494 41.721C64.9763 41.8075 68.3201 42.8916 68.3358 45.414L63.4043 45.4098Z" fill="#231F20"/>
<path d="M20.2206 41.918L26.5697 41.9221L31.9833 49.5253L32.0269 49.5253L32.0318 41.9256L36.1008 41.9282L36.094 52.478L30.0118 52.4741L24.3344 44.8737L24.2908 44.8737L24.2859 52.4704L20.2138 52.4678L20.2206 41.918Z" fill="#231F20"/>
<path d="M41.8183 50.2704L43.0958 50.2712C45.4692 50.2727 46.342 50.0244 46.3425 49.2076C46.3431 48.3289 45.2404 48.0336 43.4697 48.0324L41.8198 48.0314L41.8183 50.2704ZM41.8211 46.0311L43.0986 46.0319C45.0661 46.0332 46.1134 45.8795 46.1139 45.0628C46.1145 44.184 45.2431 43.8929 43.4724 43.8918L41.8225 43.8907L41.8211 46.0311ZM37.358 41.9292L45.0677 41.9342C48.7775 41.9366 50.9554 42.9742 50.9543 44.5407C50.9538 45.461 50.0398 46.6023 48.0061 46.9362L48.0061 46.9677C50.4565 47.1146 51.3597 48.6643 51.3591 49.5928C51.3579 51.4529 49.2303 52.4867 45.0832 52.484L37.3512 52.479L37.358 41.9292Z" fill="#231F20"/>
<path d="M7.4276 60.0227L10.6655 60.0248L9.09277 56.8217L9.05726 56.8216L7.4276 60.0227ZM7.69387 54.6784L10.5107 54.6802L15.1798 63.3882L12.3265 63.3864L11.384 61.4494L6.70928 61.4464L5.72783 63.3821L2.94347 63.3803L7.69387 54.6784Z" fill="#231F20"/>
<path d="M16.2714 54.6836L25.0527 54.6893L25.0516 56.2994L19.0141 56.2955L19.0128 58.307L24.2456 58.3103L24.2447 59.7944L19.0119 59.7911L19.0095 63.3904L16.2657 63.3886L16.2714 54.6836Z" fill="#231F20"/>
<path d="M29.392 58.6388L32.4107 58.6408C33.0419 58.6412 33.5168 58.545 33.8345 58.3461C34.1492 58.1513 34.3077 57.8334 34.308 57.3915C34.3083 56.9679 34.1502 56.6579 33.8357 56.4678C33.5182 56.2766 33.0435 56.1798 32.4123 56.1794L29.3936 56.1774L29.392 58.6388ZM26.6508 54.6904L33.3925 54.6948C33.9557 54.6951 34.4568 54.7595 34.9093 54.8837C35.3608 55.009 35.7422 55.1829 36.0637 55.4045C36.3833 55.6242 36.6296 55.8804 36.7979 56.174C36.9681 56.4667 37.0501 56.7766 37.0499 57.1027C37.0496 57.6126 36.8951 58.0585 36.5884 58.4362C36.2797 58.8098 35.7731 59.0919 35.0749 59.2886L35.0749 59.314C35.4127 59.3782 35.6948 59.478 35.9159 59.6193C36.138 59.7556 36.3175 59.9142 36.4585 60.0992C36.5983 60.2811 36.6997 60.4813 36.7645 60.6957C36.8283 60.9111 36.8708 61.1285 36.893 61.3479C36.9051 61.4841 36.9171 61.6487 36.9271 61.8346C36.9402 62.0205 36.9614 62.2105 36.9887 62.4075C37.0211 62.5985 37.0645 62.7845 37.1293 62.9613C37.1942 63.133 37.2905 63.2814 37.4172 63.4044L34.6714 63.4026C34.5883 63.2665 34.5275 63.112 34.487 62.9464C34.4445 62.7778 34.4122 62.6039 34.3809 62.4241C34.3526 62.2423 34.3304 62.0513 34.3122 61.8624C34.2961 61.6704 34.2689 61.4916 34.2334 61.3208C34.1394 60.8657 33.9437 60.5323 33.6364 60.3208C33.3342 60.1093 32.835 60.0023 32.147 60.0019L29.3911 60.0001L29.3889 63.3992L26.6451 63.3974L26.6508 54.6904Z" fill="#231F20"/>
<path d="M42.0356 54.6995L39.2908 54.6978L39.2851 63.4038L42.0299 63.4055L42.0356 54.6995Z" fill="#231F20"/>
<path d="M52.7877 57.6414C52.7401 57.4218 52.6357 57.2227 52.4715 57.0387C52.3092 56.8527 52.1054 56.692 51.8599 56.5528C51.6155 56.4175 51.3385 56.3085 51.0291 56.2322C50.7196 56.1548 50.3959 56.1139 50.056 56.1137C49.439 56.1133 48.9134 56.1984 48.4821 56.3657C48.0497 56.532 47.6994 56.7532 47.4304 57.0354C47.1613 57.3126 46.9673 57.6325 46.8422 57.99C46.7213 58.3475 46.6612 58.7172 46.6609 59.0972C46.6607 59.4629 46.7204 59.8174 46.8408 60.165C46.9654 60.5115 47.159 60.8214 47.4277 61.0949C47.6965 61.3704 48.0464 61.5941 48.4786 61.76C48.9097 61.9269 49.4352 62.0125 50.0522 62.0129C50.8913 62.0134 51.5481 61.8321 52.0231 61.4748C52.4931 61.1195 52.7857 60.6483 52.8916 60.0652L55.5512 60.0669C55.4818 60.6094 55.2998 61.102 55.0083 61.5407C54.7149 61.9783 54.33 62.356 53.8498 62.6624C53.3727 62.9699 52.8115 63.2063 52.1691 63.3735C51.5297 63.5397 50.8213 63.6205 50.0512 63.62C49.0842 63.6194 48.2207 63.502 47.4618 63.2658C46.7061 63.0296 46.064 62.7102 45.5377 62.3015C45.0143 61.8948 44.6138 61.4141 44.3321 60.8633C44.0533 60.3094 43.9147 59.7201 43.9151 59.0944C43.9155 58.4544 44.0549 57.85 44.3344 57.2915C44.6168 56.7299 45.018 56.2435 45.5418 55.8284C46.0687 55.4152 46.7112 55.0926 47.4673 54.8554C48.2264 54.6212 49.0901 54.5019 50.0571 54.5025C50.7349 54.5029 51.3802 54.5735 52.0012 54.7111C52.618 54.8517 53.1708 55.0521 53.6537 55.3186C54.1385 55.582 54.5381 55.9084 54.8524 56.2997C55.1667 56.691 55.3653 57.1381 55.4482 57.642L52.7877 57.6403" fill="#231F20"/>
<path d="M60.58 60.0569L63.819 60.059L62.2442 56.8558L62.2097 56.8558L60.58 60.0569ZM60.8452 54.7125L63.662 54.7144L68.3322 63.4224L65.4778 63.4205L64.5344 61.4836L59.8617 61.4806L58.8792 63.4163L56.0969 63.4145L60.8452 54.7125Z" fill="#231F20"/>
<path d="M67.5885 28.9982C65.8474 25.5695 61.6576 24.2045 58.2328 25.9465C57.9628 26.0835 57.707 26.2388 57.4614 26.4031L39.0921 39.105L61.3852 39.1194C62.4455 39.1201 63.5314 38.879 64.5414 38.3646C67.9651 36.6174 69.3305 32.4268 67.5885 28.9982Z" fill="#0CB14B"/>
<path d="M49.7663 14.5463L40.1265 36.7063L59.9748 22.9775C60.4022 22.6811 60.8032 22.3279 61.1678 21.9278C63.7115 19.1033 63.4849 14.7511 60.6647 12.2066C57.8465 9.65801 53.4973 9.8858 50.9547 12.7093C50.45 13.2718 50.0559 13.8923 49.7663 14.5463Z" fill="#0089D0"/>
<path d="M49.7218 11.2779C49.985 10.6584 50.162 9.99108 50.2355 9.28712C50.6408 5.4616 47.8678 2.03226 44.0478 1.62751C40.2266 1.22377 36.8012 3.99794 36.3978 7.82346C36.3581 8.2054 36.3467 8.58634 36.3697 8.96224L36.3626 8.96223C36.3625 9.07804 36.4133 9.13192 36.5432 9.132C36.671 9.13208 38.2154 9.13308 38.3909 9.13319C38.7684 9.13344 39.3325 9.24554 39.3323 9.54319C39.3322 9.77075 38.3285 9.98343 37.7092 10.5794C37.0563 11.2058 36.7592 12.3261 36.9148 13.404L36.9148 13.3979L39.9922 34.2416L49.7218 11.2779Z" fill="#645FAA"/>
<path d="M9.95356 39.0865L32.2436 39.1009L13.8887 26.3754C13.6463 26.2107 13.3887 26.055 13.1209 25.9178C9.69633 24.1713 5.50472 25.5309 3.76127 28.9573C2.01376 32.3837 3.37381 36.5761 6.79527 38.3277C7.80559 38.8433 8.89219 39.0858 9.95356 39.0865Z" fill="#FDB913"/>
<path d="M21.6012 14.5281L31.2113 36.6997L11.3817 22.9451C10.9547 22.6482 10.5541 22.2944 10.1921 21.8939C7.6521 19.0661 7.88322 14.7143 10.7057 12.1733C13.5303 9.62839 17.8751 9.86179 20.4162 12.6886C20.9201 13.2527 21.3165 13.8737 21.6012 14.5281Z" fill="#F37021"/>
<path d="M35.0048 8.96145L31.3477 34.2361L21.6488 11.2599C21.3874 10.64 21.2132 9.97247 21.1397 9.26842C20.7403 5.44238 23.5168 2.01662 27.3363 1.6168C31.158 1.218 34.5808 3.99659 34.9771 7.82263C35.0185 8.20462 35.0263 8.58558 35.0048 8.96145Z" fill="#C8234A"/>
</g>
</g>
</g>
<defs>
<clipPath id="clip0_1_974">
<rect width="69" height="64" fill="white" transform="translate(1.01904 0.00585938) rotate(0.0370072)"/>
</clipPath>
<clipPath id="clip1_1_974">
<rect width="69" height="64" fill="white" transform="translate(1.01904 0.00585938) rotate(0.0370072)"/>
</clipPath>
<clipPath id="clip2_1_974">
<rect width="69" height="64" fill="white" transform="translate(1.01904 0.00585938) rotate(0.0370072)"/>
</clipPath>
</defs>
</svg>
