<svg width="606" height="496" viewBox="0 0 606 496" fill="none" xmlns="http://www.w3.org/2000/svg">
<g clip-path="url(#clip0_1_311)">
<mask id="mask0_1_311" style="mask-type:luminance" maskUnits="userSpaceOnUse" x="53" y="0" width="501" height="496">
<path d="M553.388 1.2856L53.3877 0.962646L53.0686 495.032L553.068 495.355L553.388 1.2856Z" fill="white"/>
</mask>
<g mask="url(#mask0_1_311)">
<path d="M535.067 300.771C535.067 300.771 519.016 305.865 507.632 319.384C496.247 332.903 478.4 334.901 478.4 334.901L462.342 308.241C462.342 308.241 478.388 303.322 490.035 290.747C501.682 278.172 519.037 274.093 519.037 274.093L535.094 300.754L535.067 300.771Z" fill="#0D823E"/>
<path d="M529.218 299.507C529.218 299.507 512.989 303.029 504.615 314.326C496.239 325.623 480.011 329.145 480.011 329.145L468.167 309.479C468.167 309.479 483.546 306.43 492.769 294.66C501.994 282.889 517.373 279.842 517.373 279.842L529.218 299.507Z" fill="#47D289"/>
<path d="M507.966 299.599C503.803 292.687 496.133 289.757 490.811 292.962C485.491 296.167 484.51 304.344 488.657 311.229C492.819 318.142 500.491 321.071 505.811 317.866C511.177 314.673 512.13 306.511 507.966 299.599Z" fill="#0D823E"/>
<path d="M503.369 299.971L493.24 308.193L493.495 308.507L503.624 300.285L503.369 299.971Z" fill="#47D289"/>
<path d="M504.499 301.354L494.371 309.576L494.627 309.891L504.754 301.669L504.499 301.354Z" fill="#47D289"/>
<path d="M499.192 310.459L493.596 303.564L494.568 302.774L499.604 304.477C500.77 304.86 501.763 305.264 502.672 305.712L502.675 305.687C501.849 304.816 501.147 304.009 500.276 302.936L497.93 300.046L498.773 299.36L504.371 306.256L503.47 306.988L498.436 305.259C497.323 304.882 496.226 304.466 495.279 304.002L495.261 304.039C496.028 304.865 496.715 305.683 497.645 306.827L500.036 309.775L499.192 310.459Z" fill="#47D289"/>
<path d="M292.679 82.3865C398.11 82.4546 483.522 167.978 483.454 273.407C483.386 378.837 397.863 464.249 292.433 464.181C187.003 464.113 101.59 378.59 101.658 273.161C101.726 167.731 187.249 82.3184 292.679 82.3865Z" fill="#FFF5DB"/>
<path d="M174.536 32.0457L415.475 32.2013C421.381 32.2052 426.166 36.9963 426.163 42.9029L426.045 225.78C426.041 231.686 421.25 236.471 415.343 236.468L174.404 236.312C168.498 236.308 163.713 231.517 163.716 225.61L163.835 42.7335C163.838 36.8269 168.63 32.0419 174.536 32.0457Z" fill="white"/>
<path d="M207.984 169.806L382.207 169.919C386.933 169.922 390.761 173.755 390.758 178.48L390.741 204.041C390.738 208.766 386.905 212.594 382.18 212.591L207.957 212.479C203.232 212.476 199.404 208.642 199.407 203.917L199.423 178.357C199.426 173.632 203.259 169.803 207.984 169.806Z" fill="#F8F8F8"/>
<path d="M286.362 194.775L288.558 194.777L288.558 195.742L283.003 195.739L283.003 194.773L285.2 194.775L285.205 187.205L283.162 188.505L283.162 187.4L285.71 185.779L286.367 185.779L286.362 194.775Z" fill="black"/>
<path d="M293.798 195.857C292.66 195.856 291.793 195.427 291.197 194.569C290.61 193.701 290.317 192.431 290.318 190.762C290.319 189.093 290.614 187.829 291.202 186.971C291.799 186.104 292.667 185.671 293.804 185.672C294.942 185.672 295.805 186.107 296.393 186.974C296.989 187.833 297.286 189.093 297.285 190.752C297.284 192.422 296.985 193.69 296.388 194.558C295.799 195.425 294.936 195.858 293.798 195.857ZM293.799 194.892C294.592 194.893 295.175 194.558 295.549 193.886C295.931 193.215 296.123 192.17 296.124 190.752C296.125 189.343 295.94 188.308 295.567 187.646C295.194 186.983 294.606 186.652 293.804 186.651C293.011 186.651 292.424 186.982 292.041 187.643C291.667 188.305 291.48 189.34 291.48 190.749C291.479 192.157 291.664 193.202 292.037 193.884C292.419 194.556 293.006 194.892 293.799 194.892Z" fill="black"/>
<path d="M301.169 191.763C300.413 191.762 299.826 191.505 299.406 190.993C298.987 190.479 298.777 189.718 298.778 188.711C298.778 187.713 298.989 186.958 299.409 186.445C299.83 185.932 300.417 185.676 301.173 185.677C301.928 185.677 302.515 185.934 302.935 186.447C303.363 186.961 303.578 187.716 303.577 188.714C303.577 189.721 303.361 190.482 302.932 190.995C302.511 191.507 301.924 191.763 301.169 191.763ZM302.229 195.752L301.124 195.751L306.894 185.792L308 185.793L302.229 195.752ZM301.17 190.951C301.636 190.951 301.976 190.775 302.191 190.42C302.415 190.057 302.528 189.488 302.528 188.713C302.529 187.949 302.417 187.389 302.193 187.034C301.979 186.67 301.639 186.489 301.173 186.488C300.715 186.488 300.375 186.669 300.151 187.033C299.926 187.388 299.814 187.947 299.814 188.712C299.813 189.486 299.924 190.055 300.149 190.419C300.372 190.774 300.712 190.951 301.17 190.951ZM307.951 195.852C307.196 195.852 306.609 195.595 306.189 195.083C305.77 194.569 305.56 193.808 305.561 192.801C305.561 191.794 305.772 191.038 306.192 190.535C306.612 190.022 307.2 189.766 307.955 189.766C308.711 189.767 309.298 190.024 309.718 190.537C310.146 191.041 310.361 191.797 310.36 192.804C310.36 193.811 310.144 194.572 309.715 195.085C309.294 195.597 308.707 195.853 307.951 195.852ZM307.952 195.041C308.427 195.041 308.773 194.865 308.987 194.51C309.212 194.156 309.324 193.587 309.324 192.803C309.325 192.039 309.214 191.479 308.989 191.124C308.766 190.76 308.421 190.578 307.954 190.578C307.488 190.578 307.144 190.759 306.919 191.123C306.705 191.478 306.596 192.037 306.596 192.802C306.595 193.576 306.703 194.145 306.917 194.508C307.141 194.864 307.485 195.04 307.952 195.041Z" fill="black"/>
<path d="M369.413 176.906C377.14 176.911 383.4 183.179 383.395 190.906C383.39 198.633 377.122 204.892 369.395 204.887C361.668 204.882 355.408 198.615 355.413 190.888C355.418 183.161 361.686 176.901 369.413 176.906Z" fill="#40186C"/>
<path d="M364.024 190.727C364.024 190.225 364.432 189.818 364.934 189.818L374.041 189.824C374.545 189.824 374.952 190.232 374.951 190.735C374.951 191.237 374.543 191.645 374.04 191.645L364.933 191.639C364.43 191.639 364.024 191.23 364.024 190.727Z" fill="white"/>
<path d="M369.574 185.515C370.076 185.516 370.484 185.924 370.483 186.427L370.478 195.533C370.477 196.036 370.069 196.444 369.567 196.444C369.064 196.444 368.656 196.035 368.656 195.532L368.662 186.426C368.662 185.923 369.071 185.515 369.574 185.515Z" fill="white"/>
<path d="M220.394 204.093C227.734 204.097 233.689 198.151 233.693 190.81C233.698 183.469 227.751 177.515 220.411 177.51C213.07 177.506 207.116 183.452 207.111 190.793C207.106 198.134 213.053 204.088 220.394 204.093ZM220.393 204.792C212.666 204.787 206.407 198.519 206.412 190.793C206.417 183.066 212.684 176.806 220.411 176.811C228.138 176.816 234.398 183.084 234.393 190.811C234.388 198.537 228.12 204.797 220.393 204.792Z" fill="#40186C"/>
<path d="M215.021 190.631C215.021 190.129 215.429 189.721 215.932 189.722L225.039 189.728C225.542 189.728 225.949 190.136 225.948 190.638C225.948 191.141 225.54 191.549 225.038 191.549L215.931 191.543C215.427 191.543 215.021 191.134 215.021 190.631Z" fill="#40186C"/>
<path d="M245.157 146.27L248.714 146.273C249.567 146.273 250.228 146.48 250.696 146.893C251.164 147.299 251.398 147.852 251.398 148.551C251.397 149.244 251.159 149.796 250.683 150.208C250.207 150.621 249.55 150.827 248.711 150.826L247.126 150.825L247.124 153.743L245.152 153.742L245.157 146.27ZM248.449 149.357C249.191 149.357 249.561 149.095 249.561 148.572C249.561 148.305 249.471 148.106 249.289 147.973C249.115 147.833 248.835 147.763 248.45 147.762L247.128 147.761L247.127 149.356L248.449 149.357Z" fill="black"/>
<path d="M256.927 151.272L253.58 151.27C253.615 151.683 253.733 151.98 253.936 152.163C254.138 152.344 254.436 152.435 254.828 152.436C255.093 152.436 255.36 152.394 255.625 152.311C255.891 152.22 256.133 152.097 256.349 151.944L256.832 153.204C256.566 153.399 256.243 153.553 255.866 153.664C255.488 153.776 255.111 153.831 254.732 153.831C254.124 153.831 253.595 153.719 253.148 153.495C252.7 153.271 252.359 152.952 252.12 152.539C251.883 152.119 251.765 151.626 251.765 151.06C251.766 150.521 251.877 150.041 252.102 149.622C252.333 149.196 252.648 148.863 253.047 148.626C253.452 148.388 253.914 148.269 254.432 148.27C254.936 148.27 255.376 148.383 255.754 148.607C256.131 148.83 256.422 149.152 256.625 149.573C256.826 149.986 256.928 150.468 256.927 151.021L256.927 151.272ZM254.484 149.571C254.015 149.571 253.721 149.844 253.602 150.389L255.301 150.39C255.232 149.845 254.959 149.572 254.484 149.571Z" fill="black"/>
<path d="M261.176 148.295C261.435 148.295 261.635 148.334 261.774 148.411L261.773 150.143C261.472 150.003 261.182 149.932 260.902 149.932C260.105 149.931 259.706 150.313 259.706 151.075L259.704 153.751L257.805 153.75L257.807 149.951C257.808 149.378 257.779 148.867 257.723 148.418L259.507 148.42L259.622 149.311C259.749 148.983 259.951 148.731 260.232 148.557C260.512 148.382 260.826 148.295 261.176 148.295Z" fill="black"/>
<path d="M264.855 153.838C263.952 153.837 263.246 153.592 262.735 153.102C262.226 152.613 261.97 151.944 261.971 151.097C261.971 150.538 262.095 150.045 262.339 149.618C262.591 149.192 262.941 148.863 263.389 148.633C263.837 148.395 264.354 148.276 264.943 148.277C265.334 148.277 265.719 148.337 266.096 148.456C266.474 148.569 266.775 148.722 266.999 148.919L266.515 150.229C266.326 150.075 266.106 149.953 265.854 149.862C265.603 149.771 265.361 149.725 265.13 149.725C264.738 149.725 264.438 149.837 264.228 150.06C264.017 150.283 263.912 150.616 263.912 151.057C263.912 151.505 264.016 151.844 264.227 152.075C264.436 152.298 264.74 152.411 265.139 152.411C265.37 152.411 265.607 152.366 265.852 152.275C266.105 152.184 266.325 152.062 266.514 151.909L266.996 153.2C266.765 153.402 266.456 153.56 266.072 153.671C265.694 153.783 265.289 153.838 264.855 153.838Z" fill="black"/>
<path d="M272.534 151.282L269.186 151.28C269.221 151.693 269.34 151.99 269.543 152.173C269.745 152.354 270.042 152.445 270.435 152.446C270.7 152.446 270.966 152.404 271.231 152.321C271.498 152.23 271.74 152.107 271.956 151.954L272.438 153.214C272.172 153.409 271.85 153.563 271.472 153.674C271.095 153.786 270.717 153.842 270.339 153.841C269.73 153.841 269.202 153.729 268.755 153.505C268.307 153.281 267.965 152.962 267.727 152.549C267.49 152.129 267.371 151.636 267.372 151.07C267.372 150.531 267.483 150.051 267.708 149.632C267.939 149.206 268.254 148.874 268.653 148.636C269.059 148.398 269.521 148.279 270.038 148.28C270.542 148.28 270.983 148.393 271.36 148.617C271.737 148.84 272.028 149.163 272.23 149.583C272.433 149.996 272.534 150.478 272.534 151.031L272.534 151.282ZM270.09 149.581C269.622 149.581 269.327 149.854 269.208 150.399L270.908 150.4C270.839 149.855 270.566 149.582 270.09 149.581Z" fill="black"/>
<path d="M276.981 148.285C277.611 148.285 278.08 148.478 278.387 148.863C278.703 149.241 278.859 149.814 278.859 150.584L278.857 153.764L276.957 153.762L276.959 150.666C276.96 150.338 276.904 150.104 276.792 149.964C276.68 149.817 276.506 149.743 276.267 149.743C275.98 149.743 275.749 149.84 275.575 150.036C275.4 150.225 275.312 150.477 275.312 150.791L275.31 153.761L273.411 153.76L273.414 149.961C273.414 149.388 273.385 148.877 273.33 148.429L275.114 148.43L275.208 149.217C275.411 148.917 275.662 148.686 275.964 148.526C276.265 148.364 276.604 148.284 276.981 148.285Z" fill="black"/>
<path d="M283.108 152.318C283.233 152.318 283.401 152.297 283.611 152.256L283.611 153.693C283.352 153.797 283.022 153.85 282.624 153.849C281.904 153.849 281.354 153.646 280.977 153.24C280.606 152.834 280.421 152.27 280.422 151.55L280.423 149.829L279.426 149.828L279.427 148.432L280.424 148.433L280.425 147.227L282.324 146.62L282.323 148.434L283.604 148.435L283.603 149.831L282.322 149.83L282.321 151.551C282.321 151.803 282.395 151.996 282.541 152.128C282.695 152.255 282.883 152.318 283.108 152.318Z" fill="black"/>
<path d="M289.941 148.439L289.938 153.77L288.07 153.769L288.071 153.045C287.917 153.296 287.693 153.496 287.399 153.642C287.104 153.782 286.783 153.852 286.433 153.852C285.978 153.851 285.573 153.74 285.216 153.515C284.859 153.291 284.58 152.972 284.377 152.559C284.182 152.14 284.084 151.658 284.084 151.111C284.085 150.559 284.186 150.07 284.39 149.643C284.593 149.217 284.873 148.884 285.23 148.647C285.586 148.409 285.989 148.29 286.437 148.29C286.786 148.291 287.105 148.368 287.391 148.522C287.685 148.669 287.912 148.869 288.073 149.12L288.074 148.438L289.941 148.439ZM287.022 152.436C287.358 152.436 287.617 152.321 287.799 152.09C287.981 151.859 288.072 151.527 288.072 151.094C288.072 150.653 287.982 150.317 287.8 150.086C287.618 149.847 287.36 149.728 287.024 149.728C286.695 149.728 286.436 149.851 286.247 150.096C286.058 150.333 285.963 150.672 285.963 151.112C285.963 151.539 286.054 151.869 286.235 152.1C286.417 152.323 286.679 152.436 287.022 152.436Z" fill="black"/>
<path d="M296.747 148.444L296.744 153.439C296.743 154.313 296.481 154.978 295.955 155.432C295.43 155.894 294.661 156.124 293.646 156.124C292.779 156.123 292.027 155.968 291.391 155.66L291.675 154.275C291.99 154.416 292.311 154.524 292.641 154.601C292.975 154.685 293.291 154.728 293.585 154.728C294.018 154.728 294.337 154.633 294.539 154.445C294.75 154.263 294.855 153.976 294.855 153.584L294.855 152.797C294.68 153.028 294.443 153.224 294.142 153.385C293.848 153.545 293.532 153.625 293.198 153.625C292.742 153.625 292.333 153.516 291.97 153.299C291.613 153.075 291.333 152.764 291.131 152.365C290.928 151.96 290.827 151.49 290.827 150.958C290.827 150.434 290.929 149.972 291.133 149.574C291.335 149.168 291.616 148.853 291.973 148.63C292.337 148.407 292.745 148.294 293.201 148.295C293.557 148.295 293.882 148.369 294.176 148.516C294.47 148.662 294.697 148.863 294.858 149.114L294.858 148.443L296.747 148.444ZM293.785 152.209C294.121 152.21 294.383 152.101 294.573 151.885C294.761 151.66 294.856 151.353 294.857 150.961C294.857 150.584 294.762 150.286 294.574 150.069C294.385 149.845 294.123 149.733 293.787 149.733C293.451 149.732 293.185 149.841 292.989 150.057C292.801 150.274 292.705 150.575 292.705 150.959C292.705 151.345 292.803 151.649 292.999 151.873C293.194 152.097 293.457 152.209 293.785 152.209Z" fill="black"/>
<path d="M302.783 151.302L299.436 151.3C299.471 151.713 299.589 152.01 299.793 152.192C299.995 152.374 300.292 152.465 300.684 152.465C300.95 152.465 301.216 152.424 301.481 152.341C301.748 152.25 301.989 152.127 302.206 151.973L302.688 153.233C302.422 153.429 302.099 153.583 301.722 153.694C301.344 153.806 300.967 153.861 300.588 153.861C299.98 153.86 299.453 153.749 299.005 153.524C298.557 153.3 298.215 152.981 297.976 152.568C297.739 152.149 297.621 151.656 297.621 151.089C297.622 150.55 297.733 150.071 297.958 149.652C298.189 149.225 298.504 148.893 298.903 148.656C299.308 148.418 299.77 148.299 300.288 148.299C300.792 148.3 301.232 148.412 301.61 148.636C301.987 148.86 302.278 149.182 302.481 149.602C302.683 150.015 302.784 150.498 302.783 151.051L302.783 151.302ZM300.34 149.601C299.871 149.601 299.577 149.873 299.458 150.419L301.157 150.42C301.088 149.874 300.816 149.601 300.34 149.601Z" fill="black"/>
<path d="M309.853 152.335C309.979 152.335 310.147 152.314 310.356 152.273L310.356 153.71C310.097 153.814 309.767 153.867 309.37 153.867C308.649 153.866 308.099 153.663 307.722 153.257C307.351 152.851 307.166 152.288 307.167 151.567L307.168 149.846L306.171 149.845L306.172 148.449L307.169 148.45L307.17 147.244L309.069 146.637L309.068 148.451L310.348 148.452L310.347 149.848L309.067 149.847L309.066 151.568C309.066 151.82 309.14 152.013 309.286 152.145C309.44 152.272 309.629 152.335 309.853 152.335Z" fill="black"/>
<path d="M313.755 153.869C313.161 153.869 312.643 153.757 312.203 153.533C311.762 153.309 311.424 152.987 311.185 152.567C310.948 152.147 310.83 151.654 310.83 151.087C310.83 150.52 310.95 150.027 311.187 149.608C311.426 149.188 311.765 148.866 312.206 148.643C312.647 148.42 313.164 148.308 313.759 148.308C314.346 148.308 314.857 148.424 315.29 148.656C315.732 148.879 316.07 149.202 316.308 149.622C316.546 150.034 316.664 150.524 316.664 151.091C316.664 151.657 316.545 152.15 316.306 152.571C316.068 152.983 315.729 153.304 315.287 153.535C314.854 153.759 314.343 153.87 313.755 153.869ZM313.756 152.453C314.442 152.454 314.786 151.998 314.786 151.089C314.786 150.627 314.699 150.288 314.524 150.071C314.356 149.847 314.101 149.735 313.758 149.735C313.408 149.734 313.146 149.847 312.971 150.07C312.796 150.287 312.708 150.626 312.708 151.088C312.708 151.556 312.795 151.903 312.969 152.127C313.145 152.344 313.407 152.453 313.756 152.453Z" fill="black"/>
<path d="M323.412 153.886C322.851 153.886 322.299 153.812 321.753 153.665C321.208 153.518 320.764 153.318 320.421 153.066L321.041 151.671C321.404 151.902 321.789 152.08 322.196 152.207C322.607 152.326 323.02 152.385 323.433 152.386C323.853 152.386 324.175 152.331 324.399 152.219C324.622 152.1 324.735 151.936 324.735 151.726C324.735 151.537 324.633 151.382 324.43 151.264C324.228 151.137 323.847 151.015 323.287 150.896C322.581 150.756 322.032 150.584 321.641 150.381C321.248 150.171 320.972 149.926 320.811 149.645C320.658 149.365 320.582 149.026 320.582 148.627C320.582 148.172 320.712 147.764 320.971 147.399C321.23 147.029 321.594 146.743 322.063 146.541C322.531 146.331 323.067 146.227 323.668 146.227C324.207 146.228 324.728 146.303 325.231 146.458C325.742 146.606 326.14 146.802 326.428 147.047L325.818 148.442C325.489 148.211 325.143 148.035 324.779 147.916C324.416 147.79 324.052 147.728 323.688 147.727C323.331 147.727 323.044 147.797 322.827 147.937C322.61 148.069 322.502 148.251 322.502 148.482C322.502 148.608 322.54 148.713 322.617 148.796C322.694 148.881 322.837 148.964 323.047 149.049C323.258 149.126 323.572 149.21 323.991 149.301C324.67 149.449 325.201 149.628 325.586 149.838C325.978 150.04 326.253 150.282 326.414 150.562C326.575 150.835 326.655 151.163 326.655 151.549C326.654 152.276 326.371 152.849 325.805 153.269C325.237 153.681 324.439 153.887 323.412 153.886Z" fill="black"/>
<path d="M333.267 148.467L333.264 153.798L331.395 153.797L331.396 153.073C331.242 153.324 331.018 153.524 330.724 153.671C330.43 153.81 330.109 153.88 329.759 153.88C329.303 153.879 328.898 153.768 328.541 153.543C328.185 153.319 327.905 153.001 327.702 152.587C327.507 152.168 327.41 151.686 327.41 151.139C327.41 150.587 327.512 150.098 327.715 149.671C327.918 149.245 328.199 148.912 328.555 148.675C328.912 148.437 329.315 148.318 329.763 148.318C330.112 148.319 330.43 148.396 330.716 148.55C331.011 148.697 331.238 148.897 331.398 149.148L331.399 148.466L333.267 148.467ZM330.347 152.464C330.683 152.464 330.942 152.349 331.124 152.118C331.306 151.887 331.397 151.555 331.397 151.122C331.397 150.681 331.307 150.345 331.125 150.114C330.943 149.875 330.685 149.757 330.349 149.756C330.02 149.756 329.762 149.879 329.572 150.124C329.383 150.361 329.288 150.7 329.288 151.14C329.288 151.567 329.379 151.897 329.56 152.128C329.742 152.351 330.004 152.464 330.347 152.464Z" fill="black"/>
<path d="M339.904 148.482L337.529 153.801L335.966 153.8L333.629 148.478L335.601 148.48L336.796 151.544L338.036 148.481L339.904 148.482Z" fill="black"/>
<path d="M345.063 151.329L341.716 151.327C341.751 151.74 341.869 152.037 342.072 152.219C342.274 152.401 342.572 152.492 342.964 152.492C343.23 152.493 343.496 152.451 343.761 152.368C344.027 152.277 344.269 152.154 344.485 152.001L344.968 153.261C344.702 153.456 344.38 153.61 344.002 153.721C343.624 153.833 343.247 153.888 342.868 153.888C342.26 153.888 341.732 153.776 341.284 153.551C340.836 153.328 340.495 153.009 340.256 152.596C340.019 152.176 339.901 151.683 339.901 151.116C339.901 150.577 340.013 150.098 340.238 149.679C340.469 149.253 340.784 148.92 341.183 148.683C341.588 148.445 342.05 148.326 342.568 148.327C343.072 148.327 343.512 148.44 343.89 148.663C344.267 148.887 344.558 149.209 344.761 149.63C344.962 150.043 345.064 150.525 345.063 151.078L345.063 151.329ZM342.62 149.628C342.151 149.628 341.857 149.901 341.738 150.446L343.437 150.447C343.368 149.902 343.096 149.629 342.62 149.628Z" fill="black"/>
<path d="M262.596 58.7924C261.962 58.792 261.335 58.7083 260.717 58.5414C260.099 58.3745 259.596 58.1482 259.208 57.8626L259.91 56.2813C260.323 56.5432 260.758 56.7458 261.218 56.8886C261.686 57.0238 262.153 57.0915 262.621 57.0918C263.097 57.0921 263.462 57.0289 263.715 56.9023C263.97 56.7676 264.096 56.5814 264.096 56.3435C264.096 56.1293 263.982 55.9549 263.752 55.8201C263.522 55.6771 263.09 55.5383 262.456 55.403C261.655 55.2439 261.033 55.0493 260.589 54.819C260.146 54.5808 259.832 54.3032 259.65 53.9859C259.476 53.6688 259.389 53.2841 259.39 52.8323C259.39 52.317 259.537 51.8532 259.83 51.4413C260.124 51.0213 260.536 50.6965 261.068 50.4668C261.599 50.2293 262.205 50.1108 262.887 50.1113C263.498 50.1117 264.088 50.1992 264.659 50.374C265.238 50.5409 265.69 50.7633 266.015 51.0409L265.324 52.6222C264.951 52.3601 264.559 52.1617 264.147 52.0266C263.734 51.8838 263.323 51.8121 262.91 51.8119C262.506 51.8116 262.18 51.8907 261.934 52.0491C261.689 52.1994 261.566 52.4056 261.566 52.6672C261.566 52.81 261.609 52.9289 261.696 53.024C261.784 53.1192 261.946 53.2144 262.184 53.3099C262.421 53.3973 262.778 53.4924 263.254 53.5959C264.023 53.7629 264.625 53.9654 265.061 54.2036C265.505 54.4339 265.818 54.7075 266 55.0248C266.182 55.334 266.273 55.7068 266.273 56.1428C266.272 56.9674 265.951 57.6172 265.308 58.0926C264.666 58.5598 263.762 58.7932 262.596 58.7924Z" fill="black"/>
<path d="M271.387 52.4831C271.902 52.4834 272.362 52.6186 272.766 52.8884C273.17 53.1584 273.488 53.5351 273.717 54.0189C273.947 54.5025 274.061 55.0577 274.061 55.6839C274.061 56.3023 273.945 56.8494 273.715 57.325C273.492 57.7925 273.179 58.153 272.774 58.4064C272.37 58.6599 271.907 58.7866 271.383 58.7862C270.987 58.786 270.626 58.7104 270.301 58.5595C269.976 58.4007 269.727 58.1826 269.552 57.9051L269.55 61.2586L267.398 61.2572L267.402 54.3834C267.403 53.7332 267.372 53.1547 267.308 52.6472L269.33 52.6485L269.448 53.5881C269.6 53.2552 269.849 52.9898 270.198 52.7916C270.548 52.5858 270.943 52.4828 271.387 52.4831ZM270.731 57.1803C271.119 57.1806 271.412 57.0538 271.611 56.8002C271.809 56.5466 271.909 56.1742 271.909 55.6826C271.909 55.183 271.806 54.7986 271.6 54.5289C271.402 54.2514 271.113 54.1124 270.733 54.1121C270.343 54.1119 270.047 54.2424 269.84 54.5038C269.634 54.7653 269.531 55.1499 269.53 55.6573C269.53 56.1489 269.633 56.5254 269.839 56.7872C270.045 57.0489 270.341 57.1801 270.731 57.1803Z" fill="black"/>
<path d="M280.643 55.8903L276.85 55.8879C276.889 56.3558 277.023 56.6926 277.253 56.8988C277.483 57.1052 277.82 57.2087 278.265 57.2089C278.565 57.2091 278.867 57.1617 279.169 57.0667C279.469 56.9639 279.743 56.825 279.989 56.6508L280.535 58.0782C280.234 58.3001 279.869 58.4746 279.44 58.601C279.013 58.7277 278.585 58.7909 278.156 58.7906C277.466 58.7902 276.868 58.6626 276.361 58.4086C275.854 58.1545 275.466 57.7936 275.196 57.3258C274.927 56.8498 274.793 56.2909 274.793 55.6486C274.794 55.0385 274.92 54.4953 275.174 54.0199C275.436 53.5364 275.794 53.1602 276.245 52.8907C276.705 52.6215 277.229 52.4867 277.815 52.4871C278.387 52.4874 278.886 52.615 279.314 52.869C279.741 53.1229 280.071 53.4875 280.3 53.9635C280.53 54.4315 280.644 54.9788 280.643 55.605L280.643 55.8903ZM277.875 53.9619C277.343 53.9616 277.01 54.2704 276.875 54.8886L278.801 54.8899C278.722 54.2715 278.414 53.9622 277.875 53.9619Z" fill="black"/>
<path d="M285.684 52.4922C286.399 52.4926 286.929 52.7114 287.278 53.1476C287.634 53.5759 287.813 54.2263 287.812 55.0983L287.81 58.7016L285.657 58.7002L285.659 55.192C285.66 54.8192 285.596 54.5536 285.469 54.395C285.343 54.2281 285.144 54.1452 284.875 54.1451C284.55 54.1449 284.289 54.2556 284.09 54.4776C283.892 54.6914 283.792 54.9769 283.792 55.3336L283.79 58.699L281.638 58.6976L281.641 54.3925C281.641 53.7423 281.609 53.1639 281.547 52.6563L283.568 52.6576L283.674 53.5497C283.904 53.2087 284.19 52.9475 284.531 52.7651C284.873 52.5831 285.257 52.4919 285.684 52.4922Z" fill="black"/>
<path d="M295.427 49.9537L295.421 58.7062L293.304 58.7049L293.304 57.8844C293.129 58.1697 292.876 58.3955 292.543 58.5618C292.209 58.7202 291.845 58.7993 291.449 58.799C290.934 58.7987 290.474 58.6675 290.07 58.4056C289.666 58.1358 289.348 57.7631 289.119 57.2871C288.898 56.8033 288.787 56.2484 288.787 55.6221C288.787 55.0036 288.899 54.4567 289.121 53.9811C289.351 53.5054 289.669 53.141 290.073 52.8875C290.478 52.6262 290.938 52.4956 291.453 52.4959C291.834 52.4961 292.182 52.5759 292.499 52.7345C292.824 52.8933 293.081 53.1076 293.272 53.3773L293.274 49.9524L295.427 49.9537ZM292.116 57.194C292.496 57.1942 292.79 57.0635 292.996 56.802C293.202 56.5326 293.305 56.148 293.305 55.6488C293.306 55.1651 293.199 54.7925 292.985 54.5305C292.779 54.2608 292.491 54.126 292.117 54.1258C291.729 54.1255 291.432 54.256 291.225 54.5175C291.02 54.7711 290.916 55.1396 290.915 55.6235C290.915 56.1228 291.019 56.5114 291.224 56.789C291.438 57.0586 291.736 57.1937 292.116 57.194Z" fill="black"/>
<path d="M302.554 54.5368L302.553 55.976L300.353 55.9746L300.352 58.1865L298.9 58.1856L298.902 55.9737L296.702 55.9722L296.703 54.533L298.903 54.5344L298.904 52.3225L300.356 52.3234L300.354 54.5354L302.554 54.5368Z" fill="black"/>
<path d="M307.018 58.821C306.384 58.8206 305.757 58.7369 305.139 58.57C304.521 58.4031 304.018 58.1767 303.63 57.8912L304.332 56.3098C304.744 56.5717 305.18 56.7743 305.64 56.9172C306.107 57.0523 306.575 57.1201 307.043 57.1204C307.518 57.1207 307.883 57.0574 308.137 56.9309C308.39 56.7962 308.518 56.61 308.518 56.3721C308.518 56.1579 308.403 55.9834 308.173 55.8486C307.943 55.7057 307.511 55.5668 306.877 55.4315C306.077 55.2724 305.455 55.0779 305.01 54.8476C304.566 54.6094 304.254 54.3318 304.072 54.0145C303.897 53.6974 303.81 53.3127 303.811 52.8609C303.811 52.3456 303.959 51.8817 304.252 51.4699C304.545 51.0498 304.958 50.725 305.489 50.4954C306.02 50.2578 306.627 50.1394 307.309 50.1398C307.919 50.1402 308.51 50.2278 309.08 50.4026C309.66 50.5695 310.111 50.7918 310.436 51.0695L309.745 52.6508C309.373 52.3887 308.981 52.1903 308.568 52.0552C308.156 51.9124 307.743 51.8407 307.332 51.8404C306.927 51.8402 306.602 51.9193 306.356 52.0777C306.11 52.228 305.987 52.4342 305.987 52.6958C305.987 52.8386 306.031 52.9574 306.118 53.0526C306.205 53.1478 306.367 53.243 306.606 53.3385C306.843 53.4258 307.2 53.5209 307.675 53.6245C308.444 53.7915 309.047 53.994 309.483 54.2321C309.927 54.4624 310.24 54.7361 310.421 55.0534C310.604 55.3626 310.695 55.7354 310.694 56.1714C310.694 56.996 310.373 57.6458 309.73 58.1211C309.088 58.5884 308.183 58.8217 307.018 58.821Z" fill="black"/>
<path d="M318.187 52.6801L318.183 58.7211L316.067 58.7197L316.067 57.8993C315.892 58.1845 315.638 58.4101 315.306 58.5764C314.973 58.7348 314.608 58.8141 314.212 58.8139C313.696 58.8135 313.236 58.686 312.832 58.432C312.428 58.1781 312.111 57.8172 311.881 57.3494C311.66 56.8735 311.549 56.3265 311.55 55.7081C311.55 55.0819 311.666 54.5269 311.896 54.0436C312.125 53.56 312.443 53.1838 312.848 52.9143C313.252 52.645 313.708 52.5102 314.216 52.5105C314.612 52.5108 314.973 52.5987 315.298 52.7733C315.63 52.9398 315.888 53.166 316.07 53.4517L316.071 52.6787L318.187 52.6801ZM314.879 57.2086C315.258 57.2088 315.553 57.0781 315.758 56.8166C315.965 56.5551 316.069 56.1787 316.069 55.6871C316.069 55.1876 315.966 54.8073 315.76 54.5454C315.554 54.2757 315.26 54.1409 314.881 54.1406C314.508 54.1404 314.215 54.2788 314 54.5561C313.786 54.8255 313.678 55.21 313.678 55.7095C313.677 56.1932 313.781 56.5658 313.987 56.8276C314.192 57.0814 314.49 57.2083 314.879 57.2086Z" fill="black"/>
<path d="M323.593 52.6951L325.71 52.6965L323.018 58.7244L321.246 58.7233L318.598 52.6919L320.834 52.6933L322.188 56.1668L323.593 52.6951Z" fill="black"/>
<path d="M331.557 55.923L327.763 55.9206C327.803 56.3885 327.937 56.7253 328.167 56.9315C328.397 57.1379 328.734 57.2414 329.178 57.2417C329.479 57.2419 329.781 57.1944 330.082 57.0995C330.383 56.9966 330.657 56.8577 330.902 56.6835L331.448 58.111C331.147 58.3328 330.783 58.5073 330.354 58.6337C329.926 58.7604 329.498 58.8236 329.069 58.8234C328.379 58.8229 327.782 58.6953 327.274 58.4413C326.767 58.1872 326.379 57.8263 326.11 57.3585C325.84 56.8825 325.706 56.3237 325.706 55.6814C325.706 55.0712 325.834 54.528 326.088 54.0527C326.35 53.5691 326.707 53.1929 327.159 52.9234C327.619 52.6542 328.142 52.5194 328.729 52.5198C329.3 52.5201 329.799 52.6477 330.227 52.9017C330.655 53.1557 330.984 53.5202 331.213 53.9962C331.443 54.4642 331.557 55.0115 331.557 55.6377L331.557 55.923ZM328.787 53.9946C328.257 53.9943 327.923 54.3031 327.787 54.9213L329.715 54.9226C329.636 54.3042 329.327 53.995 328.787 53.9946Z" fill="black"/>
<path d="M178.19 60.4373L171.726 54.0416C171.454 53.7726 171.454 53.3374 171.727 53.068L178.198 46.6804C178.592 46.2916 179.232 46.292 179.626 46.6813C180.019 47.0709 180.019 47.7031 179.625 48.0919L174.089 53.5569L179.618 59.0277C180.011 59.4177 180.011 60.0492 179.617 60.4382C179.223 60.8273 178.583 60.8269 178.19 60.4373Z" fill="#40186C"/>
<path d="M407.2 42.6192L392.66 42.6098C386.437 42.6058 381.389 47.7587 381.385 54.1188C381.381 60.479 386.422 65.6384 392.645 65.6424L407.185 65.6518C413.408 65.6558 418.457 60.503 418.461 54.1428C418.465 47.7826 413.423 42.6232 407.2 42.6192Z" fill="#40186C"/>
<path d="M407.304 63.0438C412.052 63.0469 415.905 59.1148 415.908 54.2616C415.911 49.408 412.064 45.471 407.315 45.468C402.566 45.4649 398.713 49.3969 398.71 54.2504C398.707 59.1037 402.554 63.0407 407.304 63.0438Z" fill="white"/>
<path d="M278.881 85.9775L311.76 85.9988C314.271 86.0004 316.305 88.0375 316.304 90.5487C316.302 93.06 314.265 95.0948 311.754 95.0931L278.875 95.0719C276.364 95.0703 274.33 93.0329 274.331 90.5215C274.333 88.0104 276.37 85.9759 278.881 85.9775Z" fill="#C9C9C9"/>
<path d="M251.504 112.751L250.393 112.751L250.392 113.695L251.504 113.696L251.503 114.718L250.392 114.717L250.39 117.795L249.074 117.794L246.702 112.083L246.698 117.793L245.331 117.792L245.333 114.714L244.235 114.713L244.235 113.691L245.334 113.692L245.334 112.747L244.236 112.747L244.237 111.724L245.335 111.725L245.337 108.698L246.652 108.699L249.012 114.639L249.016 108.7L250.396 108.701L250.394 111.728L251.505 111.729L251.504 112.751Z" fill="black"/>
<path d="M262.95 116.459L262.948 118.907L253.37 118.901L253.371 116.649L258.016 111.716C258.983 110.672 259.467 109.719 259.468 108.857C259.468 108.309 259.305 107.898 258.979 107.623C258.666 107.335 258.202 107.192 257.588 107.191C256.399 107.19 255.166 107.64 253.886 108.54L252.907 106.346C253.469 105.863 254.188 105.485 255.063 105.211C255.938 104.924 256.826 104.781 257.727 104.782C259.176 104.783 260.325 105.136 261.173 105.842C262.035 106.534 262.465 107.468 262.465 108.643C262.464 109.453 262.294 110.204 261.954 110.896C261.626 111.575 261.072 112.332 260.287 113.167L257.131 116.455L262.95 116.459Z" fill="black"/>
<path d="M270.584 109.883C271.446 109.883 272.209 110.073 272.875 110.452C273.554 110.818 274.076 111.341 274.442 112.02C274.82 112.699 275.008 113.483 275.007 114.371C275.007 115.311 274.785 116.14 274.341 116.858C273.909 117.563 273.282 118.111 272.459 118.503C271.649 118.881 270.702 119.069 269.619 119.069C268.73 119.068 267.849 118.924 266.974 118.636C266.112 118.348 265.414 117.969 264.879 117.499L265.86 115.305C267.1 116.207 268.366 116.658 269.659 116.659C271.292 116.66 272.108 115.936 272.109 114.486C272.11 113.795 271.894 113.252 271.463 112.86C271.046 112.455 270.471 112.253 269.741 112.252C269.283 112.252 268.82 112.337 268.349 112.506C267.892 112.675 267.48 112.91 267.115 113.211L265.371 113.21L265.377 104.963L274.328 104.969L274.326 107.319L268.352 107.315L268.35 110.43C268.965 110.064 269.709 109.882 270.584 109.883Z" fill="black"/>
<path d="M279.76 115.765L279.758 117.782C279.758 118.552 279.62 119.245 279.345 119.858C279.084 120.485 278.633 121.112 277.992 121.738L276.838 120.836C277.478 120.17 277.876 119.531 278.033 118.917L276.564 118.916L276.566 115.763L279.76 115.765Z" fill="black"/>
<path d="M286.607 119.099C284.923 119.098 283.63 118.483 282.729 117.256C281.843 116.027 281.4 114.251 281.402 111.927C281.403 109.628 281.848 107.872 282.736 106.659C283.639 105.445 284.932 104.838 286.617 104.84C288.301 104.841 289.587 105.449 290.474 106.664C291.374 107.878 291.824 109.635 291.822 111.934C291.821 114.258 291.369 116.034 290.467 117.261C289.579 118.487 288.292 119.1 286.607 119.099ZM286.609 116.748C287.379 116.749 287.941 116.371 288.294 115.613C288.647 114.856 288.823 113.629 288.824 111.932C288.826 110.273 288.651 109.072 288.299 108.327C287.946 107.57 287.385 107.191 286.615 107.19C285.844 107.19 285.282 107.568 284.93 108.325C284.576 109.069 284.399 110.27 284.398 111.929C284.397 113.626 284.573 114.854 284.925 115.611C285.276 116.369 285.838 116.748 286.609 116.748Z" fill="black"/>
<path d="M303.877 116.387L301.977 116.386L301.975 118.932L298.979 118.93L298.98 116.384L293.124 116.38L293.125 114.109L299.536 104.985L301.984 104.987L301.979 114.016L303.879 114.017L303.877 116.387ZM298.982 114.014L298.985 109.627L295.926 114.012L298.982 114.014Z" fill="black"/>
<path d="M310.097 119.114C308.412 119.113 307.12 118.498 306.219 117.271C305.332 116.043 304.89 114.266 304.891 111.942C304.893 109.644 305.337 107.887 306.226 106.674C307.128 105.46 308.422 104.854 310.106 104.855C311.791 104.856 313.075 105.464 313.963 106.679C314.863 107.894 315.312 109.65 315.311 111.949C315.309 114.273 314.858 116.049 313.957 117.276C313.067 118.502 311.781 119.115 310.097 119.114ZM310.098 116.763C310.868 116.764 311.43 116.386 311.783 115.628C312.136 114.872 312.313 113.644 312.314 111.947C312.315 110.288 312.139 109.087 311.788 108.342C311.436 107.585 310.874 107.206 310.104 107.205C309.333 107.205 308.771 107.583 308.419 108.34C308.066 109.084 307.889 110.286 307.887 111.944C307.886 113.641 308.062 114.869 308.414 115.626C308.766 116.384 309.327 116.763 310.098 116.763Z" fill="black"/>
<path d="M320.118 118.944L316.924 118.942L316.926 115.789L320.12 115.791L320.118 118.944Z" fill="black"/>
<path d="M327.815 109.919C328.677 109.92 329.442 110.11 330.107 110.489C330.785 110.855 331.308 111.378 331.673 112.057C332.051 112.736 332.24 113.52 332.24 114.407C332.239 115.347 332.016 116.177 331.572 116.895C331.14 117.6 330.513 118.147 329.691 118.539C328.881 118.917 327.933 119.106 326.85 119.106C325.962 119.105 325.081 118.961 324.205 118.673C323.345 118.384 322.645 118.006 322.111 117.536L323.092 115.342C324.331 116.244 325.598 116.695 326.891 116.696C328.523 116.697 329.339 115.973 329.34 114.523C329.341 113.831 329.126 113.289 328.695 112.897C328.277 112.492 327.703 112.29 326.972 112.289C326.515 112.289 326.051 112.374 325.582 112.543C325.124 112.712 324.713 112.947 324.347 113.247L322.604 113.246L322.609 105L331.56 105.006L331.559 107.356L325.585 107.352L325.583 110.466C326.196 110.101 326.94 109.919 327.815 109.919Z" fill="black"/>
<path d="M341.028 111.789C341.838 112.025 342.458 112.436 342.888 113.024C343.332 113.599 343.553 114.311 343.553 115.159C343.552 116.387 343.087 117.353 342.16 118.058C341.232 118.762 339.972 119.114 338.379 119.113C337.413 119.113 336.486 118.975 335.598 118.7C334.71 118.412 333.992 118.026 333.444 117.543L334.425 115.349C335.665 116.252 336.937 116.703 338.243 116.703C339.092 116.704 339.706 116.561 340.085 116.274C340.477 115.973 340.673 115.504 340.673 114.864C340.673 114.251 340.478 113.806 340.087 113.532C339.709 113.244 339.095 113.1 338.245 113.099L336.248 113.098L336.249 110.709L337.915 110.71C338.724 110.71 339.325 110.573 339.717 110.3C340.108 110.012 340.304 109.582 340.305 109.007C340.305 108.433 340.129 107.995 339.777 107.695C339.437 107.394 338.947 107.243 338.308 107.243C337.707 107.243 337.094 107.36 336.467 107.595C335.84 107.816 335.226 108.149 334.625 108.592L333.647 106.398C334.209 105.915 334.928 105.537 335.803 105.263C336.678 104.976 337.578 104.833 338.505 104.834C339.445 104.835 340.269 104.992 340.974 105.306C341.692 105.619 342.239 106.057 342.617 106.619C343.009 107.181 343.205 107.84 343.204 108.598C343.204 109.355 343.014 110.014 342.635 110.576C342.256 111.124 341.72 111.528 341.028 111.789Z" fill="black"/>
<mask id="mask1_1_311" style="mask-type:luminance" maskUnits="userSpaceOnUse" x="53" y="0" width="501" height="496">
<path d="M53.3877 0.962646L553.388 1.2856L553.068 495.355L53.0686 495.032L53.3877 0.962646Z" fill="white"/>
</mask>
<g mask="url(#mask1_1_311)">
<mask id="mask2_1_311" style="mask-type:alpha" maskUnits="userSpaceOnUse" x="101" y="82" width="383" height="383">
<path d="M292.679 82.3865C398.11 82.4546 483.522 167.978 483.454 273.407C483.386 378.837 397.863 464.249 292.433 464.181C187.003 464.113 101.59 378.59 101.658 273.161C101.726 167.731 187.249 82.3184 292.679 82.3865Z" fill="#FFF5DB"/>
</mask>
<g mask="url(#mask2_1_311)">
<path d="M288.562 342.787C232.438 342.751 184.144 375.52 162.677 423.287L414.312 423.45C392.908 375.654 344.657 342.823 288.562 342.787Z" fill="#47D289"/>
<path d="M414.312 423.448L162.677 423.286L162.607 531.346L414.242 531.509L414.312 423.448Z" fill="#47D289"/>
<path d="M427.494 349.035C423.418 374.448 399.349 385.705 377.887 380.608C357.918 375.841 343.54 357.562 340.598 337.647C338.101 320.811 342.592 300.811 343.528 283.798C343.921 276.502 344.016 268.818 340.617 262.327C337.218 255.837 328.175 250.778 318.409 257.349L311.576 252.202C318.39 239.619 333.443 229.911 347.713 231.145C361.952 232.381 375.02 242.675 379.579 256.253C383.781 268.783 381.055 282.446 378.629 295.422C376.232 308.427 374.282 322.389 379.827 334.383C383.763 342.907 391.431 349.61 400.416 352.366C409.339 355.093 419.46 353.873 427.494 349.035Z" fill="#40186C"/>
<path d="M296.795 445.106C312.953 445.116 326.059 432.006 326.07 415.823C326.08 399.639 312.991 386.511 296.833 386.501C280.675 386.49 267.568 399.601 267.558 415.785C267.547 431.968 280.637 445.096 296.795 445.106Z" fill="#9C79CD"/>
<path d="M325.205 415.611L310.819 363.604L277.597 355.838L263.467 416.557L325.205 415.611Z" fill="#9C79CD"/>
<path d="M311.241 357.059C313.209 361.756 313.68 371.385 314.424 375.839C314.424 375.839 292.272 377.32 287.351 370.141C285.381 367.179 284.907 362.963 286.371 359.526C290.586 351.874 307.813 348.925 311.241 357.059Z" fill="#511B7B"/>
<path d="M293.349 371.096C272.661 371.232 255.774 354.507 255.638 333.785L255.341 284.868C255.206 264.147 271.875 247.235 292.564 247.099C313.253 246.962 330.138 263.688 330.274 284.408L330.571 333.325C330.737 354.046 314.038 370.96 293.349 371.096Z" fill="#9C79CD"/>
<path d="M256.154 321.41C251.168 321.437 247.081 317.398 247.055 312.405L246.973 298.919C246.947 293.926 250.98 289.832 255.965 289.806C260.951 289.779 265.038 293.819 265.064 298.812L265.146 312.297C265.172 317.29 261.169 321.384 256.154 321.41Z" fill="#9C79CD"/>
<path d="M333.742 320.953C328.756 320.98 324.669 316.94 324.643 311.947L324.561 298.462C324.535 293.469 328.568 289.375 333.553 289.348C338.539 289.322 342.626 293.361 342.652 298.354L342.734 311.84C342.79 316.833 338.757 320.897 333.742 320.953Z" fill="#9C79CD"/>
<path d="M292.81 325.62C292.332 325.5 292.004 325.081 292.005 324.603L291.897 305.944C291.898 305.346 292.375 304.869 292.943 304.869C293.54 304.869 294.017 305.348 294.017 305.916L294.124 324.575C294.124 325.172 293.646 325.65 293.078 325.65C292.99 325.65 292.9 325.65 292.81 325.62Z" fill="#40186C"/>
<path d="M276.161 312.75C275.684 312.63 275.354 312.21 275.355 311.732L275.33 305.902C275.33 305.304 275.808 304.826 276.376 304.826C276.972 304.827 277.449 305.305 277.448 305.873L277.475 311.704C277.474 312.302 276.997 312.78 276.429 312.78C276.341 312.78 276.251 312.75 276.161 312.75Z" fill="#40186C"/>
<path d="M309.299 312.533C308.821 312.413 308.493 311.994 308.493 311.515L308.467 305.684C308.467 305.087 308.946 304.609 309.512 304.609C310.11 304.61 310.587 305.088 310.587 305.657L310.613 311.487C310.612 312.086 310.135 312.563 309.567 312.563C309.449 312.563 309.389 312.563 309.299 312.533Z" fill="#40186C"/>
<path d="M310.457 325.367C307.98 324.379 305.173 325.573 304.187 328.054C303.2 330.535 304.393 333.347 306.869 334.335L311.137 336.042C312.84 333.352 313.977 330.243 314.337 326.894L310.457 325.367Z" fill="#6E499D"/>
<path d="M292.948 347.062C292.47 346.942 292.142 346.524 292.143 346.045C292.143 345.447 292.621 344.969 293.188 344.97C304.413 344.887 313.465 335.714 313.382 324.471C313.382 323.873 313.861 323.395 314.428 323.395C315.026 323.396 315.502 323.874 315.502 324.442C315.584 336.851 305.577 347.011 293.187 347.092C293.097 347.092 293.038 347.092 292.948 347.062Z" fill="#40186C"/>
<path d="M314.526 264.026C320.048 264.029 324.529 259.548 324.533 254.016C324.536 248.483 320.061 243.996 314.539 243.993C309.015 243.989 304.534 248.471 304.531 254.003C304.527 259.535 309.002 264.022 314.526 264.026Z" fill="#47D289"/>
<path d="M330.303 284.008C330.222 270.284 322.946 257.96 311.606 251.792C313.508 265.338 319.888 278.529 330.33 288.912L330.303 284.008Z" fill="#40186C"/>
<path d="M321.871 260.554C314.949 252.058 304.386 246.638 292.593 246.691C271.905 246.827 255.205 263.74 255.341 284.461L255.422 298.484C283.097 296.858 307.228 282.192 321.871 260.554Z" fill="#40186C"/>
<path d="M315.544 444.49L315.542 446.553C315.539 451.516 311.537 455.52 306.581 455.517L275.682 455.497C270.786 455.494 266.819 451.545 266.732 446.701C266.941 446.492 267.15 446.312 267.359 446.133C272.228 441.89 280.052 438.127 287.757 434.784C302.68 439.697 310.65 442.005 315.544 444.49Z" fill="#5F36A8"/>
<path d="M419.545 494.22L386.431 525.233C375.634 508.081 326.722 459.95 320.176 452.8C317.622 450.012 310.559 439.426 288.551 432.004C294.182 429.125 299.708 426.49 303.931 424.083C312.985 418.903 314.691 413.89 314.892 406.18C314.96 403.809 314.731 401.456 314.323 399.115L314.469 399.075L312.711 369.436C320.789 374.529 323.531 383.952 325.349 392.919C327.34 402.775 327.866 413.168 332.405 422.124C337.115 431.429 408.307 489.286 419.545 494.22Z" fill="#9C79CD"/>
<path d="M266.731 446.7C258.965 453.722 197.48 525.444 193.473 535.158L163.813 512.445C181.613 501.663 250.717 420.019 255.446 399.869C256.853 393.95 260.592 385.102 266.743 382.116L266.727 407.262L295.633 394.752L304.83 390.752C308.533 389.169 312.771 391.235 313.783 395.123C314.498 397.874 315.094 400.655 315.391 403.466C315.687 405.829 315.746 408.161 315.535 410.552C314.903 418.237 312.9 423.169 303.523 427.767C299.163 429.917 293.489 432.216 287.696 434.754C279.991 438.128 272.197 441.861 267.298 446.103C267.149 446.343 266.91 446.521 266.731 446.7Z" fill="#9C79CD"/>
<path d="M266.788 358.767L266.788 358.647C266.791 353.684 270.795 349.68 275.751 349.683L292.379 349.694L306.648 349.703C311.604 349.706 315.602 353.745 315.599 358.678L315.589 373.778L315.57 403.47L315.421 403.499C315.124 400.689 314.559 397.908 313.814 395.156C312.772 391.268 308.534 389.202 304.86 390.785L295.664 394.785L266.773 382.149L266.788 358.767ZM282.46 361.677C282.462 359.465 280.672 357.64 278.432 357.639C276.194 357.637 274.401 359.429 274.4 361.672C274.398 363.885 276.188 365.709 278.427 365.711C280.666 365.712 282.459 363.92 282.46 361.677Z" fill="#5F36A8"/>
<path d="M295.664 394.75L266.757 407.29L266.774 382.144L295.664 394.75Z" fill="#9C79CD"/>
<path d="M266.756 408.311C266.548 408.311 266.368 408.251 266.189 408.132C265.891 407.953 265.742 407.623 265.742 407.295L265.758 382.149C265.758 381.58 266.207 381.132 266.774 381.132C267.342 381.133 267.788 381.581 267.788 382.15L267.773 405.741L295.276 393.828C295.783 393.62 296.381 393.829 296.619 394.368C296.827 394.876 296.618 395.474 296.08 395.713L267.174 408.222C267.026 408.282 266.876 408.311 266.756 408.311Z" fill="#40186C"/>
<path d="M287.755 435.805C287.367 435.804 286.979 435.565 286.831 435.206C286.592 434.697 286.831 434.099 287.368 433.861C289.13 433.085 290.862 432.338 292.564 431.622C296.446 429.95 300.15 428.397 303.136 426.904C312.005 422.514 313.948 417.941 314.58 410.496C314.761 408.253 314.732 405.981 314.435 403.62C314.376 403.05 314.765 402.543 315.331 402.483C315.869 402.424 316.406 402.813 316.466 403.381C316.762 405.892 316.821 408.285 316.611 410.677C315.948 418.69 313.736 423.95 304.031 428.729C300.984 430.252 297.281 431.833 293.339 433.506C291.637 434.222 289.906 434.969 288.143 435.745C288.024 435.775 287.875 435.805 287.755 435.805Z" fill="#40186C"/>
<path d="M281.202 414.239C280.813 414.239 280.425 413.999 280.276 413.641C280.068 413.132 280.277 412.534 280.815 412.296L314.289 397.785C314.798 397.576 315.394 397.786 315.632 398.324C315.842 398.832 315.632 399.431 315.095 399.669L281.62 414.179C281.47 414.209 281.32 414.239 281.202 414.239Z" fill="#40186C"/>
<path d="M281.193 426.438C280.805 426.438 280.416 426.198 280.268 425.84C280.059 425.331 280.268 424.734 280.806 424.495L315.207 409.597C315.715 409.388 316.312 409.598 316.55 410.136C316.759 410.644 316.549 411.242 316.012 411.481L281.611 426.378C281.461 426.438 281.313 426.438 281.193 426.438Z" fill="#40186C"/>
<path d="M281.598 401.835C281.448 401.834 281.329 401.804 281.21 401.745L266.347 395.276C265.839 395.067 265.601 394.469 265.81 393.931C266.05 393.423 266.617 393.184 267.154 393.394L282.017 399.862C282.524 400.071 282.763 400.669 282.553 401.207C282.374 401.595 282.016 401.835 281.598 401.835Z" fill="#40186C"/>
<path d="M282.46 361.678C282.462 359.465 280.671 357.64 278.432 357.638C276.192 357.637 274.401 359.43 274.4 361.673C274.398 363.885 276.187 365.71 278.427 365.711C280.666 365.713 282.459 363.921 282.46 361.678Z" fill="white"/>
<path d="M433.982 342.181C429.906 367.594 405.837 378.851 384.375 373.753C364.406 368.987 350.028 350.708 347.086 330.793C344.589 313.957 349.08 293.957 350.016 276.944C350.409 269.649 350.503 261.964 347.105 255.473C343.706 248.983 334.663 243.923 324.896 250.495L318.064 245.348C324.878 232.765 339.93 223.056 354.2 224.292C368.439 225.527 381.508 235.821 386.067 249.399C390.268 261.929 387.543 275.592 385.116 288.567C382.72 301.572 380.77 315.535 386.316 327.529C390.25 336.054 397.918 342.755 406.903 345.512C415.827 348.239 425.948 347.019 433.982 342.181Z" fill="#40186C"/>
</g>
</g>
<g opacity="0.999996">
<path d="M496.628 204.495C496.628 204.495 480.578 209.589 469.193 223.108C457.809 236.627 439.961 238.625 439.961 238.625L423.904 211.965C423.904 211.965 439.95 207.046 451.597 194.471C463.244 181.896 480.598 177.817 480.598 177.817L496.656 204.478L496.628 204.495Z" fill="#0D823E"/>
<path d="M490.779 203.232C490.779 203.232 474.551 206.754 466.175 218.051C457.8 229.349 441.572 232.87 441.572 232.87L429.727 213.204C429.727 213.204 445.107 210.155 454.331 198.386C463.554 186.615 478.934 183.566 478.934 183.566L490.779 203.232Z" fill="#47D289"/>
<path d="M469.528 203.324C465.365 196.412 457.693 193.482 452.373 196.687C447.051 199.892 446.071 208.07 450.217 214.955C454.381 221.867 462.051 224.797 467.373 221.593C472.738 218.398 473.691 210.237 469.528 203.324Z" fill="#0D823E"/>
<path d="M464.931 203.689L454.802 211.911L455.058 212.227L465.186 204.005L464.931 203.689Z" fill="#47D289"/>
<path d="M466.06 205.079L455.931 213.302L456.186 213.616L466.315 205.394L466.06 205.079Z" fill="#47D289"/>
<path d="M460.755 214.181L455.157 207.286L456.131 206.496L461.167 208.198C462.333 208.582 463.326 208.986 464.235 209.434L464.238 209.408C463.412 208.536 462.71 207.729 461.839 206.657L459.493 203.767L460.336 203.082L465.934 209.977L465.033 210.709L459.999 208.981C458.886 208.603 457.789 208.188 456.842 207.722L456.824 207.76C457.591 208.586 458.278 209.404 459.208 210.549L461.599 213.496L460.755 214.181Z" fill="#47D289"/>
</g>
<path d="M147.955 249.187C147.955 249.187 131.905 254.281 120.52 267.8C109.135 281.319 91.2879 283.317 91.2879 283.317L75.2302 256.657C75.2302 256.657 91.2769 251.738 102.924 239.162C114.571 226.588 131.925 222.509 131.925 222.509L147.983 249.17L147.955 249.187Z" fill="#0D823E"/>
<path d="M142.106 247.923C142.106 247.923 125.878 251.445 117.503 262.741C109.128 274.039 92.8998 277.561 92.8998 277.561L81.0548 257.895C81.0548 257.895 96.4343 254.846 105.658 243.076C114.882 231.305 130.261 228.258 130.261 228.258L142.106 247.923Z" fill="#47D289"/>
<path d="M120.855 248.015C116.692 241.102 109.021 238.173 103.7 241.378C98.3789 244.583 97.3985 252.76 101.545 259.645C105.708 266.557 113.379 269.487 118.7 266.282C124.065 263.089 125.018 254.926 120.855 248.015Z" fill="#0D823E"/>
<path d="M116.257 248.386L106.129 256.608L106.384 256.923L116.513 248.701L116.257 248.386Z" fill="#47D289"/>
<path d="M117.388 249.77L107.259 257.992L107.515 258.307L117.643 250.085L117.388 249.77Z" fill="#47D289"/>
<path d="M112.081 258.875L106.484 251.98L107.457 251.19L112.493 252.893C113.659 253.276 114.651 253.68 115.561 254.128L115.564 254.102C114.737 253.231 114.035 252.425 113.164 251.351L110.819 248.461L111.663 247.776L117.26 254.671L116.359 255.403L111.325 253.675C110.211 253.298 109.115 252.882 108.167 252.417L108.15 252.455C108.916 253.281 109.604 254.098 110.533 255.243L112.925 258.19L112.081 258.875Z" fill="#47D289"/>
<path d="M208.894 325.801C207.803 325.8 206.83 326.226 206.07 326.983L187.661 345.442L212.887 345.459L212.897 329.805C212.899 327.65 211.051 325.802 208.894 325.801Z" fill="#E9A022"/>
<path d="M244.902 371.129L236.343 371.123L236.329 392.626L244.888 392.631L244.902 371.129Z" fill="#E9A022"/>
<path d="M153.632 431.242L153.629 437.114L162.829 434.634L172.026 437.126L172.03 431.254L153.632 431.242Z" fill="#E9A022"/>
<path d="M186.113 431.263L186.109 437.135L195.309 434.655L204.506 437.147L204.51 431.275L186.113 431.263Z" fill="#E9A022"/>
<path d="M239.276 380.903C238.863 360.371 223.273 343.642 203.383 341.332L203.392 326.981C203.394 324.803 201.546 322.955 199.389 322.953C198.298 322.952 197.326 323.379 196.566 324.135L179.793 340.962L160.423 340.949C148.948 341.155 138.774 346.146 131.514 353.956C130.875 352.321 129.904 350.924 128.601 349.833C128.482 349.715 128.482 349.715 128.387 349.62C128.507 348.199 128.271 346.802 127.845 345.593C126.661 342.657 123.96 340.926 120.048 340.592C119.503 340.592 119.076 340.923 118.957 341.467C118.956 342.012 119.288 342.438 119.833 342.557C122.963 342.772 125.025 344.076 125.995 346.374C126.208 347.037 126.421 347.796 126.421 348.434C124.477 347.463 122.201 347.13 120.257 347.554C118.099 348.097 116.58 350.157 116.579 352.548C116.577 354.941 117.975 356.789 120.25 357.43C122.313 357.975 124.471 357.219 126.084 355.372C126.962 354.403 127.603 353.195 127.936 351.893C128.907 352.983 129.665 354.286 129.996 355.802C124.373 362.642 120.787 371.331 120.567 380.898L120.566 381.869C120.552 404.13 138.298 422.186 160.371 422.745L198.684 422.769C221.089 422.784 239.38 404.538 239.394 381.945C239.276 381.542 239.276 381.236 239.276 380.903ZM124.473 354.093C123.832 354.85 122.409 356.058 120.583 355.511C118.521 354.966 118.309 353.118 118.31 352.574C118.31 351.389 119.07 349.851 120.587 349.425C121.014 349.308 121.465 349.308 121.986 349.308C123.385 349.309 124.902 349.736 126.206 350.613C125.873 351.821 125.327 353.123 124.473 354.093Z" fill="#FFC73D"/>
<path d="M239.277 381.875L239.278 380.904C238.721 398.712 220.74 413.051 198.572 413.036L160.259 413.012C138.519 412.666 120.984 398.422 120.45 380.827L120.449 381.798C120.436 401.785 134.722 418.418 153.639 421.912L153.633 431.479L172.031 431.491L172.036 422.682L186.095 422.691L186.09 431.5L204.487 431.512L204.493 422.276C224.198 419.447 239.264 402.406 239.277 381.875Z" fill="#FFC73D"/>
<path d="M185.151 347.832L165.022 347.819C163.078 347.818 161.441 349.451 161.44 351.392C161.439 353.358 163.05 354.969 165.018 354.971L185.147 354.984C187.09 354.985 188.727 353.352 188.729 351.41C188.73 349.468 187.119 347.833 185.151 347.832Z" fill="#E9A022"/>
<path d="M225.413 371.233C224.774 371.233 224.11 370.688 224.11 369.93C224.111 368.415 222.808 367.111 221.291 367.11C219.773 367.109 218.469 368.411 218.468 369.926C218.467 370.589 217.921 371.228 217.163 371.228C216.404 371.227 215.859 370.683 215.859 369.925C215.861 366.988 218.234 364.598 221.174 364.6C224.09 364.602 226.483 366.995 226.481 369.932C226.623 370.69 226.077 371.234 225.413 371.233Z" fill="#E9A022"/>
</g>
</g>
<defs>
<clipPath id="clip0_1_311">
<rect width="605" height="494.06" fill="white" transform="translate(0.887695 0.93335) rotate(0.0370072)"/>
</clipPath>
</defs>
</svg>
