<svg width="38" height="39" viewBox="0 0 38 39" fill="none" xmlns="http://www.w3.org/2000/svg">
<path d="M18.6744 38.1583C28.8917 38.1649 37.1797 29.8875 37.1863 19.6703C37.1929 9.45299 28.9156 1.16491 18.6983 1.15831C8.48103 1.15171 0.192953 9.42909 0.186354 19.6464C0.179755 29.8636 8.45714 38.1517 18.6744 38.1583Z" fill="#DFE3FF"/>
<mask id="mask0_1_166" style="mask-type:luminance" maskUnits="userSpaceOnUse" x="11" y="11" width="16" height="16">
<path d="M26.1913 11.962L11.1913 11.9523L11.1817 26.9523L26.1817 26.962L26.1913 11.962Z" fill="white"/>
</mask>
<g mask="url(#mask0_1_166)">
<path d="M18.1556 12.0238C18.1554 12.3423 18.1552 12.6104 18.155 12.8953C18.1536 15.1076 18.1521 17.3367 18.1507 19.549C18.1505 19.8674 18.2508 20.0519 18.5353 20.2029C20.4765 21.3605 22.401 22.535 24.3255 23.7094C24.4426 23.7765 24.5597 23.8604 24.6602 23.9276C22.8002 26.5409 19.0662 27.8122 15.6519 26.3351C12.3716 24.9084 10.5492 21.2536 11.3885 17.6843C12.2614 14.048 15.5607 12.0558 18.1556 12.0238Z" fill="#40196D"/>
<path d="M18.8758 11.9573C21.7718 12.1435 23.9641 13.4521 25.3016 16.0005C26.6059 18.465 26.4368 20.9621 25.0626 23.4082C23.6233 22.5357 22.2009 21.6801 20.7784 20.8077C20.2095 20.4553 19.6238 20.1197 19.0716 19.7507C18.9545 19.6668 18.8374 19.4991 18.8207 19.365C18.8055 16.9516 18.8071 14.5382 18.8253 12.1248C18.8254 12.108 18.8422 12.0578 18.8758 11.9573Z" fill="white"/>
</g>
</svg>
