<svg fill="none" height="30" viewbox="0 0 31 30" width="31">
<rect fill="#F93939" fill-opacity="0.3" height="30" rx="15" width="30" x="0.5" y="0.000488281"></rect>
<rect fill="white" height="15" rx="1.875" width="20.625" x="5.1875" y="7.50049"></rect>
<path d="M15.6537 17.6161H15.346L15.4229 16.485C15.4186 16.4255 15.3875 16.4098 15.2691 16.4143L14.0382 16.5557C14.0382 16.5557 14.269 16.2729 14.269 16.1316C14.269 15.9902 12.8843 15.0712 12.8843 15.0712C12.8843 15.0712 13.192 15.0005 13.2689 14.9298C13.3459 14.8591 12.9612 14.0815 12.9612 14.0815C12.9612 14.0815 13.743 14.3643 13.8074 14.2936C13.8719 14.2229 13.9613 13.9401 13.9613 13.9401C13.9613 13.9401 14.5767 14.5763 14.7306 14.5763C14.8844 14.5763 14.4229 13.0211 14.4229 13.0211C14.4229 13.0211 14.8075 13.3039 14.9614 13.3039C15.1152 13.3039 15.4999 12.3849 15.4999 12.3849C15.4999 12.3849 15.8845 13.3039 15.9615 13.3039C16.0384 13.3039 16.5769 13.0211 16.5769 13.0211C16.5769 13.0211 16.1922 14.5056 16.2692 14.5763C16.3461 14.647 17.0385 13.9401 17.0385 13.9401C17.0385 13.9401 17.1154 14.2229 17.1923 14.2936C17.2693 14.3643 18.0386 14.0815 18.0386 14.0815C18.0386 14.0815 17.6539 14.8591 17.7308 14.9298C17.8078 15.0005 18.1155 15.0712 18.1155 15.0712C18.1155 15.0712 16.7308 15.9902 16.7308 16.1316C16.7308 16.2729 16.8846 16.5557 16.8846 16.5557L15.7307 16.4143C15.6379 16.3899 15.6058 16.4084 15.5768 16.485L15.6537 17.6161Z" fill="#F93939"></path>
<rect fill="#F93939" height="15" width="4.6875" x="19.625" y="7.50049"></rect>
<rect fill="#F93939" height="15" width="4.6875" x="6.6875" y="7.50049"></rect>
<defs>
<clippath id="clip0_54847_875">
<rect fill="white" height="15" rx="1.5" width="16" x="7.5" y="7.50049"></rect>
</clippath>
<clippath id="clip1_54847_875">
<rect fill="white" height="15" rx="1.875" width="20.625" x="5.1875" y="7.50049"></rect>
</clippath>
</defs></svg>