<svg width="15" height="15" viewBox="0 0 15 15" fill="none" xmlns="http://www.w3.org/2000/svg">
<path d="M14.0644 5.35326L13.5918 5.35295C13.2605 4.32414 12.5755 3.3123 11.8045 2.5604L11.8061 0.216C11.8061 0.1453 11.7317 0.0875517 11.6609 0.087506C10.9771 0.0870643 10.3605 0.414166 9.9738 0.919216C9.86594 2.87775 8.23363 4.43739 6.24903 4.43611C5.06673 4.43535 4.01019 3.87997 3.32805 3.01782C3.06867 3.29796 2.83387 3.60211 2.63036 3.92718C2.62295 3.93647 2.61435 3.94456 2.60754 3.95426C2.49383 4.12219 2.30527 4.22206 2.10347 4.22193C1.76857 4.22172 1.49635 3.94934 1.49656 3.61454C1.49673 3.35444 1.66238 3.12335 1.90863 3.03991C2.11038 2.97154 2.21842 2.75281 2.15005 2.55086C2.08198 2.34942 1.86325 2.24128 1.6613 2.30965C1.10218 2.49909 0.725943 3.02334 0.725562 3.61384C0.725072 4.37304 1.34147 4.99074 2.10007 4.99273C1.84684 5.65977 1.68607 6.38206 1.68559 7.13676C1.68436 9.03646 2.54149 10.8462 4.08365 11.9918L4.08273 13.4138C4.08245 13.849 4.47851 14.2191 4.91371 14.2194L5.46441 14.2197C5.89971 14.22 6.26835 13.8504 6.26863 13.4152L6.26889 13.02C7.29732 13.2791 8.32592 13.2798 9.22619 13.0219L9.22593 13.4171C9.22565 13.8523 9.65441 14.2224 10.0896 14.2227L10.6401 14.223C11.0752 14.2233 11.4114 13.8537 11.4117 13.4185L11.4126 11.9965C12.4417 11.2266 13.2165 10.1102 13.5895 8.95325L14.0621 8.95356C14.4972 8.95384 14.8866 8.56689 14.8868 8.13179L14.8881 6.15899C14.8884 5.72359 14.4995 5.35354 14.0644 5.35326ZM10.2931 6.11022C9.83365 6.10993 9.46139 5.73739 9.46169 5.27779C9.46199 4.81839 9.83463 4.44593 10.2941 4.44622C10.7537 4.44652 11.1261 4.81936 11.1258 5.27886C11.1254 5.73856 10.7525 6.11052 10.2931 6.11022Z" fill="#40196D"/>
</svg>
